SplineFontDB: 3.0
FontName: VizhehAzad-Regular
FullName: VizhehAzad Regular
FamilyName: VizhehAzad
Weight: Regular
Copyright: Copyright (c) 2016 Copyright Holder Persian Font Store (info@font-store.ir), with Reserved Font Name "Nika"
UComments: "2015-5-13: Created with FontForge (http://fontforge.org)"
Version: Version:0.0.3;RFB:1.2.5;Building:2016-04-04 18:46:11.249737
FONDName: RITA
ItalicAngle: 0
UnderlinePosition: 500
UnderlineWidth: 59
Ascent: 800
Descent: 500
InvalidEm: 0
sfntRevision: 0x00010000
LayerCount: 2
Layer: 0 0 "Back" 1
Layer: 1 0 "Fore" 0
PreferredKerning: 4
XUID: [1021 828 -1901974348 32649]
StyleMap: 0x0040
FSType: 0
OS2Version: 0
OS2_WeightWidthSlopeOnly: 0
OS2_UseTypoMetrics: 0
CreationTime: 1431477301
ModificationTime: 1459779371
PfmFamily: 33
TTFWeight: 400
TTFWidth: 5
LineGap: 100
VLineGap: 0
Panose: 2 0 5 3 0 0 0 0 0 0
OS2TypoAscent: 800
OS2TypoAOffset: 0
OS2TypoDescent: -500
OS2TypoDOffset: 0
OS2TypoLinegap: 100
OS2WinAscent: 1100
OS2WinAOffset: 0
OS2WinDescent: 700
OS2WinDOffset: 0
HheadAscent: 1100
HheadAOffset: 0
HheadDescent: -700
HheadDOffset: 0
OS2SubXSize: 780
OS2SubYSize: 839
OS2SubXOff: -107
OS2SubYOff: 168
OS2SupXSize: 780
OS2SupYSize: 839
OS2SupXOff: 369
OS2SupYOff: 575
OS2StrikeYSize: 59
OS2StrikeYPos: 310
OS2Vendor: 'RITA'
OS2CodePages: 00000040.00000000
OS2UnicodeRanges: 80002003.80002000.00000008.00000000
MacStyle: 0
Lookup: 4 1 1 "'ccmp' Glyph Composition/Decomposition in Arabic lookup 5" { "'ccmp' Glyph Composition/Decomposition in Arabic lookup 5-1"  } ['ccmp' ('DFLT' <'dflt' > 'arab' <'dflt' > ) ]
Lookup: 1 9 0 "'isol' Isolated Forms in Latin lookup 1" { "'isol' Isolated Forms in Latin lookup 1-1"  } ['isol' ('DFLT' <'dflt' > 'arab' <'dflt' > ) ]
Lookup: 1 9 0 "'fina' Terminal Forms in Arabic lookup 3" { "'fina' Terminal Forms in Arabic lookup 3-1"  } ['fina' ('DFLT' <'dflt' > 'arab' <'dflt' > ) ]

StartChar: _.alef.isol
Encoding: 65536 -1 0
GlifName: _.alef.isol
Width: 233
VWidth: 1304
GlyphClass: 2
Flags: HMW
LayerCount: 2
Fore
SplineSet
64 764 m 1
 139 802 l 1
 165 747 169 672 169 591 c 2
 169 -0 l 1
 100 -14 l 1
 100 575 l 2
 100 654 89 711 64 764 c 1
EndSplineSet
Colour: ffda6b
EndChar

StartChar: _.alef.fina
Encoding: 65537 -1 1
GlifName: _.alef.fina
Width: 288
VWidth: 1304
GlyphClass: 2
Flags: HMW
LayerCount: 2
Fore
SplineSet
64 736 m 1
 132 800 l 1
 166 754 176 687 176 607 c 0
 176 494 162 330 162 218 c 0
 162 143 178 100 252 100 c 2
 288 100 l 1
 288 -0 l 1
 245 -0 l 2
 132 0 89 90 89 204 c 0
 89 300 100 449 100 545 c 0
 100 623 97 688 64 736 c 1
EndSplineSet
Colour: ffda6b
EndChar

StartChar: _.beh.isol
Encoding: 65540 -1 4
GlifName: _.beh.isol
Width: 924
VWidth: 1304
GlyphClass: 2
UnlinkRmOvrlpSave: 1
Flags: HMW
LayerCount: 2
Fore
SplineSet
64 159 m 0
 64 224 83 278 103 326 c 1
 123 383 l 1
 141 377 150 370 150 348 c 0
 150 301 124 262 124 210 c 0
 124 119 209 101 300 101 c 2
 622 101 l 2
 701 101 770 109 801 159 c 1
 792 245 761 309 714 368 c 1
 776 438 l 1
 824 380 860 302 860 204 c 0
 860 42 756 -1 595 -1 c 2
 299 -1 l 2
 172 -1 64 31 64 159 c 0
EndSplineSet
Colour: ffda6b
EndChar

StartChar: _.beh.fina
Encoding: 65541 -1 5
GlifName: _.beh.fina
Width: 1045
VWidth: 1304
GlyphClass: 2
UnlinkRmOvrlpSave: 1
Flags: HMW
LayerCount: 2
Fore
SplineSet
64 157 m 0
 64 223 85 275 103 325 c 2
 123 380 l 1
 140 375 150 367 150 347 c 0
 150 310 124 268 124 210 c 0
 124 120 210 101 299 101 c 2
 598 101 l 2
 698 101 773 115 811 177 c 1
 801 220 797 285 788 329 c 1
 856 388 l 1
 870 304 861 203 904 150 c 0
 927 119 966 100 1021 100 c 2
 1045 100 l 1
 1045 -0 l 1
 1013 -0 l 2
 915 0 861 33 833 103 c 1
 789 33 709 0 598 -0 c 2
 297 -0 l 2
 171 0 64 33 64 157 c 0
EndSplineSet
Colour: ffda6b
EndChar

StartChar: _.beh.medi
Encoding: 65542 -1 6
GlifName: _.beh.medi
Width: 481
VWidth: 1304
GlyphClass: 2
UnlinkRmOvrlpSave: 1
Flags: HMW
LayerCount: 2
Fore
SplineSet
-50 50 m 0
 -50 76 -26 100 0 100 c 2
 44 100 l 2
 142 100 216 116 254 176 c 1
 244 219 240 284 231 327 c 1
 298 385 l 1
 309 303 304 202 346 149 c 0
 369 118 407 101 462 101 c 2
 481 101 l 1
 481 -0 l 1
 456 -0 l 2
 358 0 307 34 276 102 c 1
 233 32 153 0 41 -0 c 2
 0 -0 l 2
 -26 0 -50 24 -50 50 c 0
EndSplineSet
Colour: ffda6b
EndChar

StartChar: _.beh.init
Encoding: 65543 -1 7
GlifName: _.beh.init
Width: 351
VWidth: 1197
GlyphClass: 1
UnlinkRmOvrlpSave: 1
Flags: HMW
LayerCount: 2
Fore
SplineSet
-50 49 m 0
 -50 76 -27 100 -1 100 c 0
 17 100 34 100 52 100 c 0
 130 100 198 107 229 156 c 1
 220 241 189 305 143 362 c 1
 204 431 l 1
 251 374 287 299 287 202 c 0
 287 38 179 0 40 -0 c 0
 26 0 13 0 -1 -0 c 0
 -25 0 -50 24 -50 49 c 0
EndSplineSet
Colour: ffda6b
EndChar

StartChar: _.heh.isol
Encoding: 65544 -1 8
GlifName: _.heh.isol
Width: 725
VWidth: 1304
GlyphClass: 1
UnlinkRmOvrlpSave: 1
Flags: HMW
LayerCount: 2
Fore
SplineSet
64 197 m 1
 100 260 122 337 180 375 c 0
 198 386 220 393 246 393 c 0
 299 393 335 377 383 362 c 0
 457 339 563 322 661 312 c 1
 616 225 l 1
 585 231 535 236 499 236 c 0
 353 236 244 164 185 74 c 0
 162 41 146 2 140 -40 c 1
 140 -131 213 -180 291 -198 c 0
 318 -204 348 -207 385 -207 c 0
 480 -207 566 -187 645 -169 c 1
 628 -205 611 -230 588 -271 c 1
 513 -292 442 -308 358 -308 c 0
 234 -308 146 -265 108 -180 c 0
 94 -152 89 -117 89 -78 c 0
 89 60 157 156 235 221 c 0
 266 246 296 265 332 280 c 1
 300 289 270 301 229 301 c 0
 165 301 150 262 128 224 c 0
 117 208 109 196 84 196 c 0
 80 196 73 196 64 197 c 1
EndSplineSet
Colour: ffda6b
EndChar

StartChar: _.heh.fina
Encoding: 65545 -1 9
GlifName: _.heh.fina
Width: 756
VWidth: 1304
GlyphClass: 1
UnlinkRmOvrlpSave: 1
Flags: HMW
LayerCount: 2
Fore
SplineSet
64 197 m 1
 100 260 122 337 180 375 c 0
 198 386 220 393 246 393 c 0
 299 393 335 377 383 362 c 0
 457 339 563 322 661 312 c 1
 616 225 l 1
 599 229 577 232 555 234 c 1
 569 158 595 100 692 100 c 2
 756 100 l 1
 756 -0 l 1
 694 -0 l 2
 552 0 528 115 507 236 c 1
 499 236 l 2
 353 236 244 164 185 74 c 0
 162 41 146 2 140 -40 c 1
 140 -131 213 -180 291 -198 c 0
 318 -204 348 -207 385 -207 c 0
 480 -207 566 -187 645 -169 c 1
 628 -205 611 -230 588 -271 c 1
 513 -292 442 -308 358 -308 c 0
 234 -308 146 -265 108 -180 c 0
 94 -152 89 -117 89 -78 c 0
 89 60 157 156 235 221 c 0
 266 246 296 265 332 280 c 1
 300 289 270 301 229 301 c 0
 165 301 150 262 128 224 c 0
 117 208 109 196 84 196 c 0
 80 196 73 196 64 197 c 1
EndSplineSet
Colour: ffda6b
EndChar

StartChar: _.heh.medi
Encoding: 65546 -1 10
GlifName: _.heh.medi
Width: 799
VWidth: 1304
GlyphClass: 1
UnlinkRmOvrlpSave: 1
Flags: HMW
LayerCount: 2
Fore
SplineSet
-50 50 m 0
 -50 76 -26 100 0 100 c 2
 85 100 l 2
 163 100 234 127 296 152 c 0
 360 179 431 216 497 239 c 1
 440 269 376 308 312 331 c 0
 291 338 274 341 258 341 c 0
 206 341 189 301 162 278 c 0
 153 269 143 266 131 266 c 0
 119 266 111 270 100 274 c 1
 138 324 174 383 233 413 c 0
 250 423 270 428 292 428 c 0
 342 428 386 405 424 385 c 0
 499 346 574 296 663 273 c 0
 691 264 721 261 749 261 c 1
 685 168 l 1
 660 172 638 176 612 176 c 0
 594 176 578 174 562 172 c 1
 579 120 608 100 682 100 c 2
 799 100 l 1
 799 -0 l 1
 674 -0 l 2
 557 0 522 63 505 161 c 1
 379 121 287 46 154 13 c 0
 118 4 102 0 61 -0 c 2
 0 -0 l 2
 -26 0 -50 24 -50 50 c 0
EndSplineSet
Colour: ffda6b
EndChar

StartChar: _.heh.init
Encoding: 65547 -1 11
GlifName: _.heh.init
Width: 813
VWidth: 1304
GlyphClass: 1
UnlinkRmOvrlpSave: 1
Flags: HMW
LayerCount: 2
Fore
SplineSet
-50 50 m 0
 -50 76 -26 100 0 100 c 2
 85 100 l 2
 163 100 234 127 296 152 c 0
 360 179 431 216 497 239 c 1
 440 269 376 308 312 331 c 0
 291 338 274 341 258 341 c 0
 206 341 189 301 162 278 c 0
 153 269 143 266 131 266 c 0
 119 266 111 270 100 274 c 1
 138 324 174 383 233 413 c 0
 250 423 270 428 292 428 c 0
 342 428 386 405 424 385 c 0
 499 346 574 296 663 273 c 0
 691 264 721 261 749 261 c 1
 685 168 l 1
 660 172 638 176 612 176 c 0
 537 176 481 155 428 132 c 0
 339 91 257 39 154 13 c 0
 118 4 82 0 41 -0 c 2
 0 -0 l 2
 -26 0 -50 24 -50 50 c 0
EndSplineSet
Colour: ffda6b
EndChar

StartChar: _.sin.isol
Encoding: 65548 -1 12
GlifName: _.sin.isol
Width: 1155
VWidth: 1304
GlyphClass: 1
UnlinkRmOvrlpSave: 1
Flags: HMW
LayerCount: 2
Fore
SplineSet
64 -47 m 0
 64 64 106 150 138 232 c 1
 152 226 159 215 159 198 c 0
 159 171 145 139 138 112 c 0
 128 80 116 37 116 -1 c 0
 116 -87 180 -117 265 -117 c 0
 346 -117 421 -95 475 -64 c 0
 495 -53 510 -38 522 -22 c 1
 526 -5 527 12 527 33 c 0
 527 103 507 170 489 225 c 1
 553 284 l 1
 564 238 570 197 587 156 c 0
 604 117 647 97 692 97 c 0
 743 97 796 123 814 178 c 0
 824 209 837 256 878 256 c 2
 893 256 l 1
 848 102 l 1
 876 91 913 82 947 82 c 0
 988 82 1012 98 1023 129 c 1
 1017 200 1000 254 970 306 c 1
 1038 373 l 1
 1066 321 1091 248 1091 173 c 0
 1091 95 1062 36 1014 4 c 0
 993 -9 968 -14 941 -14 c 0
 885 -14 822 8 785 26 c 1
 755 7 718 -3 681 -3 c 0
 648 -3 615 5 587 21 c 1
 576 -128 452 -196 308 -213 c 0
 287 -216 267 -218 247 -218 c 0
 144 -218 64 -173 64 -47 c 0
EndSplineSet
Colour: ffda6b
EndChar

StartChar: _.sin.fina
Encoding: 65549 -1 13
GlifName: _.sin.fina
Width: 1291
VWidth: 1304
GlyphClass: 1
UnlinkRmOvrlpSave: 1
Flags: HMW
LayerCount: 2
Fore
SplineSet
64 -47 m 0
 64 61 106 147 137 228 c 1
 151 222 158 212 158 194 c 0
 158 167 146 135 137 109 c 0
 127 78 114 34 114 -3 c 0
 114 -87 178 -117 262 -117 c 0
 343 -117 417 -96 469 -65 c 0
 489 -53 505 -40 516 -24 c 1
 520 -7 521 11 521 34 c 0
 521 73 510 122 501 155 c 0
 496 176 491 198 484 220 c 1
 545 279 l 1
 557 233 564 193 581 152 c 0
 596 114 639 94 685 94 c 0
 736 94 790 120 811 175 c 0
 821 207 833 252 874 252 c 0
 878 252 884 253 888 251 c 1
 842 93 l 1
 868 86 896 77 928 77 c 0
 977 77 1005 93 1022 129 c 1
 1021 179 1011 223 1005 271 c 1
 1070 332 l 1
 1085 202 1101 98 1245 98 c 2
 1291 98 l 1
 1291 -3 l 1
 1250 -3 l 2
 1164 -3 1105 29 1071 86 c 1
 1046 28 1007 -14 931 -14 c 0
 869 -14 832 3 782 24 c 1
 751 5 712 -5 674 -5 c 0
 641 -5 609 2 581 18 c 1
 567 -128 449 -194 304 -212 c 0
 284 -215 264 -216 245 -216 c 0
 143 -216 64 -171 64 -47 c 0
EndSplineSet
Colour: ffda6b
EndChar

StartChar: _.sin.medi
Encoding: 65550 -1 14
GlifName: _.sin.medi
Width: 958
VWidth: 1304
GlyphClass: 1
UnlinkRmOvrlpSave: 1
Flags: HMW
LayerCount: 2
Fore
SplineSet
-50 49 m 0
 -50 76 -27 100 -1 100 c 2
 77 100 l 2
 150 100 193 116 223 159 c 0
 241 187 269 233 287 258 c 0
 298 272 309 280 323 280 c 0
 327 280 334 278 343 274 c 1
 263 102 l 1
 304 90 317 81 367 81 c 0
 430 81 461 97 478 143 c 0
 492 182 499 258 552 258 c 2
 564 258 l 1
 522 96 l 1
 548 87 576 77 609 77 c 0
 659 77 688 94 705 130 c 1
 704 180 693 226 687 274 c 1
 755 337 l 1
 766 241 773 151 846 117 c 0
 883 100 912 100 958 100 c 1
 958 -0 l 1
 937 -0 l 2
 850 0 789 29 755 88 c 1
 730 26 690 -15 612 -15 c 0
 555 -15 520 1 474 18 c 1
 451 0 410 -16 371 -16 c 0
 296 -16 255 3 195 21 c 1
 161 4 122 0 74 -0 c 2
 -1 -0 l 2
 -25 0 -50 24 -50 49 c 0
EndSplineSet
Colour: ffda6b
EndChar

StartChar: _.sin.init
Encoding: 65551 -1 15
GlifName: _.sin.init
Width: 834
VWidth: 1304
GlyphClass: 1
UnlinkRmOvrlpSave: 1
Flags: HMW
LayerCount: 2
Fore
SplineSet
-50 50 m 0
 -50 76 -26 100 -1 100 c 2
 82 100 l 2
 153 100 198 115 226 157 c 0
 246 187 269 227 290 257 c 0
 300 271 309 278 323 278 c 0
 329 278 337 277 345 274 c 1
 266 102 l 1
 312 88 327 80 370 80 c 0
 432 80 466 97 482 141 c 1
 505 215 l 2
 512 237 526 257 556 257 c 0
 560 257 563 258 568 257 c 1
 526 100 l 1
 554 91 589 80 625 80 c 0
 666 80 691 98 703 128 c 1
 696 201 677 253 649 305 c 1
 718 373 l 1
 746 320 770 250 770 172 c 0
 770 94 740 35 692 4 c 0
 672 -9 647 -15 620 -15 c 0
 569 -15 513 4 478 20 c 1
 455 2 414 -15 375 -15 c 0
 301 -15 259 4 200 21 c 1
 166 4 125 0 78 -0 c 2
 -1 -0 l 2
 -26 0 -50 24 -50 50 c 0
EndSplineSet
Colour: ffda6b
EndChar

StartChar: _.sad.isol
Encoding: 65552 -1 16
GlifName: _.sad.isol
Width: 1401
VWidth: 1304
GlyphClass: 1
UnlinkRmOvrlpSave: 1
Flags: HMW
LayerCount: 2
Fore
SplineSet
64 -32 m 0
 64 81 105 168 138 252 c 1
 152 246 159 232 159 215 c 0
 159 187 147 155 138 129 c 0
 128 96 116 54 116 13 c 0
 116 -74 181 -105 267 -105 c 0
 351 -105 429 -83 483 -51 c 0
 503 -40 518 -25 529 -9 c 1
 534 8 535 25 535 45 c 0
 535 123 512 185 494 247 c 0
 487 269 479 293 470 315 c 1
 535 375 l 1
 555 293 569 195 611 136 c 0
 623 118 640 106 661 102 c 1
 793 191 914 307 1070 370 c 0
 1093 380 1118 384 1139 384 c 0
 1230 384 1291 322 1321 258 c 0
 1332 235 1337 209 1337 184 c 0
 1337 131 1308 96 1277 69 c 0
 1220 22 1135 0 1029 -0 c 2
 686 -0 l 2
 648 0 617 16 597 36 c 1
 585 -96 492 -162 375 -192 c 0
 336 -202 295 -207 249 -207 c 0
 130 -207 64 -148 64 -32 c 0
756 100 m 1
 1023 100 l 2
 1123 100 1204 115 1261 159 c 1
 1234 230 1191 282 1109 282 c 0
 1039 282 974 247 925 216 c 0
 867 183 808 137 756 100 c 1
EndSplineSet
Colour: ffda6b
EndChar

StartChar: _.sad.fina
Encoding: 65553 -1 17
GlifName: _.sad.fina
Width: 1414
VWidth: 1304
GlyphClass: 1
UnlinkRmOvrlpSave: 1
Flags: HMW
LayerCount: 2
Fore
SplineSet
64 -32 m 0
 64 81 105 168 138 252 c 1
 152 246 159 232 159 215 c 0
 159 187 147 155 138 129 c 0
 128 96 116 54 116 13 c 0
 116 -74 181 -105 267 -105 c 0
 351 -105 429 -83 483 -51 c 0
 503 -40 518 -25 529 -9 c 1
 534 8 535 25 535 45 c 0
 535 123 512 185 494 247 c 0
 487 269 479 293 470 315 c 1
 535 375 l 1
 555 293 569 195 611 136 c 0
 622 121 641 109 659 103 c 1
 791 204 956 385 1086 385 c 0
 1193 385 1284 292 1284 186 c 0
 1284 134 1257 97 1227 71 c 1
 1287 87 1348 100 1405 100 c 2
 1414 100 l 1
 1414 -0 l 1
 677 -0 l 1
 644 2 615 18 597 36 c 1
 585 -96 492 -162 375 -192 c 0
 336 -202 295 -207 249 -207 c 0
 130 -207 64 -148 64 -32 c 0
744 100 m 1
 971 100 l 2
 1079 100 1146 115 1209 159 c 1
 1181 232 1138 283 1056 283 c 0
 938 283 822 164 744 100 c 1
EndSplineSet
Colour: ffda6b
EndChar

StartChar: _.sad.medi
Encoding: 65554 -1 18
GlifName: _.sad.medi
Width: 1168
VWidth: 1304
GlyphClass: 1
UnlinkRmOvrlpSave: 1
Flags: HMW
LayerCount: 2
Fore
SplineSet
-50 50 m 0
 -49 76 -25 100 0 100 c 2
 126 100 l 2
 206 100 244 123 260 183 c 0
 270 222 268 303 318 303 c 2
 332 303 l 1
 331 275 329 245 329 218 c 0
 329 149 352 112 409 102 c 1
 542 202 709 385 839 385 c 0
 946 385 1037 292 1037 186 c 0
 1037 134 1010 97 980 71 c 1
 1040 87 1101 100 1158 100 c 2
 1168 100 l 1
 1168 -0 l 1
 430 -0 l 2
 359 0 312 29 289 79 c 1
 263 25 218 0 140 -0 c 2
 0 -0 l 2
 -25 0 -50 24 -50 50 c 0
497 100 m 1
 724 100 l 2
 832 100 899 115 962 159 c 1
 934 232 891 283 809 283 c 0
 691 283 575 164 497 100 c 1
EndSplineSet
Colour: ffda6b
EndChar

StartChar: _.sad.init
Encoding: 65555 -1 19
GlifName: _.sad.init
Width: 1101
VWidth: 1304
GlyphClass: 1
UnlinkRmOvrlpSave: 1
Flags: HMW
LayerCount: 2
Fore
SplineSet
-50 50 m 0
 -49 76 -25 100 0 100 c 2
 126 100 l 2
 206 100 244 123 260 183 c 0
 270 222 268 303 318 303 c 2
 332 303 l 1
 331 275 329 245 329 218 c 0
 329 149 352 112 409 102 c 1
 542 202 709 385 839 385 c 0
 946 385 1037 292 1037 186 c 0
 1037 132 1009 96 978 69 c 0
 923 21 835 0 729 -0 c 2
 430 -0 l 2
 359 0 312 29 289 79 c 1
 263 25 218 0 140 -0 c 2
 0 -0 l 2
 -25 0 -50 24 -50 50 c 0
497 100 m 1
 724 100 l 2
 832 100 899 115 962 159 c 1
 934 232 891 283 809 283 c 0
 691 283 575 164 497 100 c 1
EndSplineSet
Colour: ffda6b
EndChar

StartChar: _.ta.isol
Encoding: 65556 -1 20
GlifName: _.ta.isol
Width: 846
VWidth: 1304
GlyphClass: 1
UnlinkRmOvrlpSave: 1
Flags: HMW
LayerCount: 2
Fore
SplineSet
64 100 m 1
 151 100 l 1
 165 109 l 1
 236 169 244 269 244 401 c 0
 244 469 241 537 239 573 c 0
 238 626 225 666 199 698 c 1
 265 795 l 1
 356 693 l 1
 310 614 l 1
 309 588 309 556 309 524 c 0
 309 492 309 459 309 433 c 0
 309 418 309 401 309 384 c 0
 309 328 307 265 295 220 c 1
 393 304 497 385 584 385 c 0
 691 385 782 292 782 186 c 0
 782 132 754 96 723 69 c 0
 668 21 580 0 474 -0 c 2
 85 -0 l 1
 64 100 l 1
241 100 m 1
 469 100 l 2
 577 100 644 115 707 159 c 1
 679 232 636 283 554 283 c 0
 436 283 319 164 241 100 c 1
EndSplineSet
Colour: ffda6b
EndChar

StartChar: _.ta.fina
Encoding: 65557 -1 21
GlifName: _.ta.fina
Width: 912
VWidth: 1304
GlyphClass: 1
UnlinkRmOvrlpSave: 1
Flags: HMW
LayerCount: 2
Fore
SplineSet
64 100 m 1
 151 100 l 1
 165 109 l 1
 236 169 244 269 244 401 c 0
 244 469 241 537 239 573 c 0
 238 626 225 666 199 698 c 1
 265 795 l 1
 356 693 l 1
 310 614 l 1
 309 588 309 556 309 524 c 0
 309 492 309 459 309 433 c 0
 309 418 309 401 309 384 c 0
 309 328 307 265 295 220 c 1
 393 304 497 385 584 385 c 0
 691 385 782 292 782 186 c 0
 782 134 755 97 725 71 c 1
 785 87 845 100 902 100 c 2
 912 100 l 1
 912 -0 l 1
 85 -0 l 1
 64 100 l 1
241 100 m 1
 469 100 l 2
 577 100 644 115 707 159 c 1
 679 232 636 283 554 283 c 0
 436 283 319 164 241 100 c 1
EndSplineSet
Colour: ffda6b
EndChar

StartChar: _.ta.medi
Encoding: 65558 -1 22
GlifName: _.ta.medi
Width: 865
VWidth: 1304
GlyphClass: 1
UnlinkRmOvrlpSave: 1
Flags: HMW
LayerCount: 2
Fore
SplineSet
-50 50 m 0
 -50 76 -26 100 0 100 c 2
 104 100 l 1
 117 109 l 1
 188 169 197 269 197 401 c 0
 197 469 193 537 191 573 c 0
 190 626 178 666 152 698 c 1
 217 795 l 1
 308 693 l 1
 263 614 l 1
 262 588 261 556 261 524 c 0
 261 492 261 459 261 433 c 0
 261 418 262 401 262 384 c 0
 262 328 260 265 248 220 c 1
 346 304 449 385 536 385 c 0
 643 385 734 292 734 186 c 0
 734 134 708 97 678 71 c 1
 738 87 798 100 855 100 c 2
 865 100 l 1
 865 -0 l 1
 0 -0 l 2
 -26 0 -50 24 -50 50 c 0
194 100 m 1
 421 100 l 2
 529 100 596 115 659 159 c 1
 631 232 588 283 506 283 c 0
 388 283 272 164 194 100 c 1
EndSplineSet
Colour: ffda6b
EndChar

StartChar: _.ta.init
Encoding: 65559 -1 23
GlifName: _.ta.init
Width: 798
VWidth: 1304
GlyphClass: 1
UnlinkRmOvrlpSave: 1
Flags: HMW
LayerCount: 2
Fore
SplineSet
-50 50 m 0
 -50 76 -26 100 0 100 c 2
 104 100 l 1
 117 109 l 1
 188 169 197 269 197 401 c 0
 197 469 193 537 191 573 c 0
 190 626 178 666 152 698 c 1
 217 795 l 1
 308 693 l 1
 263 614 l 1
 262 588 261 556 261 524 c 0
 261 492 261 459 261 433 c 0
 261 418 262 401 262 384 c 0
 262 328 260 265 248 220 c 1
 346 304 449 385 536 385 c 0
 643 385 734 292 734 186 c 0
 734 132 706 96 675 69 c 0
 620 21 532 0 426 -0 c 2
 0 -0 l 2
 -26 0 -50 24 -50 50 c 0
194 100 m 1
 421 100 l 2
 529 100 596 115 659 159 c 1
 631 232 588 283 506 283 c 0
 388 283 272 164 194 100 c 1
EndSplineSet
Colour: ffda6b
EndChar

StartChar: _.ein.isol
Encoding: 65560 -1 24
GlifName: _.ein.isol
Width: 662
VWidth: 1304
GlyphClass: 1
UnlinkRmOvrlpSave: 1
Flags: HMW
LayerCount: 2
Fore
SplineSet
302 479 m 0
 231 479 178 442 178 376 c 0
 178 325 229 305 291 305 c 0
 360 305 402 328 459 343 c 1
 446 256 l 1
 290 219 150 164 113 6 c 1
 113 -56 152 -99 194 -122 c 0
 232 -145 284 -155 348 -155 c 0
 438 -155 520 -135 598 -118 c 1
 577 -148 565 -177 542 -214 c 1
 471 -236 401 -251 321 -251 c 0
 168 -251 64 -183 64 -30 c 0
 64 86 118 175 181 234 c 1
 144 251 113 273 113 325 c 0
 113 380 138 426 158 463 c 0
 186 515 231 570 310 570 c 0
 356 570 392 545 420 527 c 1
 412 453 l 1
 382 468 343 479 302 479 c 0
EndSplineSet
Colour: ffda6b
EndChar

StartChar: _.ein.fina
Encoding: 65561 -1 25
GlifName: _.ein.fina
Width: 726
VWidth: 1304
GlyphClass: 1
UnlinkRmOvrlpSave: 1
Flags: HMW
LayerCount: 2
Fore
SplineSet
64 364 m 1
 90 477 l 1
 152 504 223 530 307 530 c 0
 376 530 434 510 465 471 c 0
 477 456 483 439 483 417 c 0
 483 343 439 298 398 261 c 0
 381 245 363 231 343 216 c 1
 376 129 404 101 522 101 c 2
 726 101 l 1
 700 1 l 1
 502 1 l 2
 360 1 324 68 283 170 c 1
 223 123 172 66 155 -21 c 1
 155 -112 211 -164 284 -190 c 0
 318 -202 365 -207 419 -207 c 0
 514 -207 600 -186 686 -168 c 1
 633 -271 l 1
 555 -292 465 -309 378 -309 c 0
 213 -309 103 -241 103 -83 c 0
 103 -14 121 42 143 92 c 0
 168 147 206 197 250 235 c 1
 214 299 156 357 64 364 c 1
154 427 m 1
 204 404 243 373 276 330 c 0
 286 314 295 297 305 277 c 1
 333 300 372 325 393 357 c 0
 400 367 404 378 404 388 c 0
 404 436 338 444 291 444 c 0
 243 444 185 438 154 427 c 1
EndSplineSet
Colour: ffda6b
EndChar

StartChar: _.ein.medi
Encoding: 65562 -1 26
GlifName: _.ein.medi
Width: 578
VWidth: 1304
GlyphClass: 1
UnlinkRmOvrlpSave: 1
Flags: HMW
LayerCount: 2
Fore
SplineSet
-50 50 m 0
 -50 76 -26 100 0 100 c 0
 14 100 30 100 44 100 c 0
 114 100 181 120 239 148 c 1
 198 207 146 264 66 282 c 1
 88 393 l 1
 136 415 231 436 317 436 c 0
 413 436 499 408 499 322 c 0
 499 263 448 191 373 128 c 1
 401 107 436 100 506 100 c 2
 578 100 l 1
 578 -0 l 1
 518 -0 l 2
 412 0 351 23 301 77 c 1
 227 31 139 0 57 -0 c 0
 38 0 19 0 0 -0 c 0
 -26 0 -50 24 -50 50 c 0
164 335 m 1
 226 298 275 245 317 189 c 1
 382 233 425 279 425 294 c 0
 425 342 314 347 266 347 c 0
 232 347 189 344 164 335 c 1
EndSplineSet
Colour: ffda6b
EndChar

StartChar: _.ein.init
Encoding: 65563 -1 27
GlifName: _.ein.init
Width: 614
VWidth: 1304
GlyphClass: 1
UnlinkRmOvrlpSave: 1
Flags: HMW
LayerCount: 2
Fore
SplineSet
-50 50 m 0
 -50 76 -26 100 0 100 c 2
 19 100 l 2
 106 100 179 111 241 144 c 1
 195 169 164 185 164 242 c 0
 164 299 190 346 211 384 c 0
 234 430 271 471 321 489 c 0
 336 495 353 497 370 497 c 0
 417 497 455 470 483 450 c 1
 476 375 l 1
 444 390 405 402 361 402 c 0
 313 402 280 386 259 363 c 0
 243 345 231 322 231 296 c 0
 231 237 290 221 348 221 c 0
 423 221 482 254 550 264 c 1
 532 164 l 1
 418 153 335 112 259 64 c 0
 168 7 82 0 20 -0 c 2
 0 -0 l 2
 -26 0 -50 24 -50 50 c 0
EndSplineSet
Colour: ffda6b
EndChar

StartChar: _.feh.isol
Encoding: 65564 -1 28
GlifName: _.feh.isol
Width: 931
VWidth: 1304
GlyphClass: 1
UnlinkRmOvrlpSave: 1
Flags: HMW
LayerCount: 2
Fore
SplineSet
64 156 m 0
 64 174 66 193 70 213 c 0
 82 271 103 322 123 375 c 1
 140 369 150 363 150 342 c 0
 150 335 149 326 145 315 c 0
 136 283 124 246 124 207 c 0
 124 118 208 100 298 100 c 2
 614 100 l 2
 687 100 742 112 788 140 c 1
 793 180 l 1
 661 180 l 2
 588 180 555 233 555 306 c 0
 555 387 588 457 629 501 c 0
 646 522 670 541 704 541 c 0
 722 541 739 538 755 529 c 0
 828 487 867 385 867 272 c 0
 867 106 786 0 619 -0 c 2
 294 -0 l 2
 170 0 64 32 64 156 c 0
608 340 m 0
 608 304 626 278 662 278 c 2
 795 278 l 1
 795 287 794 294 792 306 c 0
 782 365 752 441 682 441 c 0
 671 441 661 438 652 432 c 0
 629 414 608 381 608 340 c 0
EndSplineSet
Colour: ffda6b
EndChar

StartChar: _.feh.fina
Encoding: 65565 -1 29
GlifName: _.feh.fina
Width: 1056
VWidth: 1304
GlyphClass: 1
UnlinkRmOvrlpSave: 1
Flags: HMW
LayerCount: 2
Fore
SplineSet
64 156 m 0
 64 197 73 234 84 267 c 0
 95 303 110 339 122 375 c 1
 139 370 149 362 149 342 c 0
 149 306 124 263 124 208 c 0
 124 119 210 100 297 100 c 2
 617 100 l 2
 651 100 691 106 719 113 c 1
 677 140 660 177 660 216 c 0
 660 269 690 326 725 368 c 0
 753 401 801 447 856 447 c 0
 924 447 957 388 957 320 c 0
 957 239 923 171 889 122 c 1
 939 104 997 101 1056 100 c 1
 1056 -0 l 1
 1007 -0 l 2
 927 0 865 25 810 55 c 1
 758 22 684 0 600 -0 c 2
 294 -0 l 2
 170 0 64 32 64 156 c 0
720 252 m 0
 720 227 740 208 755 197 c 0
 772 182 795 169 812 159 c 1
 845 183 890 228 890 274 c 0
 890 313 871 348 832 348 c 0
 786 348 749 314 731 287 c 0
 724 275 720 263 720 252 c 0
EndSplineSet
Colour: ffda6b
EndChar

StartChar: _.feh.medi
Encoding: 65566 -1 30
GlifName: _.feh.medi
Width: 557
VWidth: 1304
GlyphClass: 1
UnlinkRmOvrlpSave: 1
Flags: HMW
LayerCount: 2
Fore
SplineSet
-50 49 m 0
 -50 76 -27 100 -1 100 c 0
 18 100 38 100 57 100 c 0
 99 100 152 101 191 113 c 1
 158 134 131 163 131 215 c 0
 131 254 147 291 163 319 c 0
 189 368 232 414 282 437 c 0
 298 443 312 447 326 447 c 0
 395 447 429 387 429 319 c 0
 429 259 408 206 386 167 c 0
 379 150 370 134 359 120 c 1
 418 99 489 100 557 100 c 1
 557 -0 l 1
 478 -0 l 2
 398 0 337 26 282 54 c 1
 230 21 153 0 71 -0 c 2
 -1 -0 l 2
 -25 0 -50 24 -50 49 c 0
192 251 m 0
 192 230 206 213 227 197 c 0
 244 183 267 169 285 159 c 1
 312 181 340 206 355 242 c 0
 359 253 362 263 362 274 c 0
 362 312 344 348 305 348 c 0
 258 348 222 313 204 285 c 0
 196 272 192 261 192 251 c 0
EndSplineSet
Colour: ffda6b
EndChar

StartChar: _.feh.init
Encoding: 65567 -1 31
GlifName: _.feh.init
Width: 452
VWidth: 1304
GlyphClass: 1
UnlinkRmOvrlpSave: 1
Flags: HMW
LayerCount: 2
Fore
SplineSet
-50 50 m 0
 -50 76 -25 100 0 100 c 2
 133 100 l 2
 206 100 262 112 308 140 c 1
 314 178 l 1
 180 178 l 2
 107 178 77 233 77 306 c 0
 77 386 109 457 148 501 c 0
 166 522 190 541 226 541 c 0
 312 541 350 457 370 391 c 0
 381 355 388 314 388 272 c 0
 388 106 307 0 140 -0 c 2
 0 -0 l 2
 -25 0 -50 24 -50 50 c 0
129 340 m 0
 129 304 146 278 184 278 c 2
 314 278 l 1
 314 346 283 407 239 433 c 0
 228 439 216 441 202 441 c 0
 155 441 129 386 129 340 c 0
EndSplineSet
Colour: ffda6b
EndChar

StartChar: _.qaf.isol
Encoding: 65568 -1 32
GlifName: _.qaf.isol
Width: 665
VWidth: 1304
GlyphClass: 1
UnlinkRmOvrlpSave: 1
Flags: HMW
LayerCount: 2
Fore
SplineSet
64 -48 m 0
 64 64 106 151 139 235 c 1
 154 229 160 218 160 200 c 0
 160 172 147 140 138 113 c 0
 129 80 116 36 116 -3 c 0
 116 -89 181 -121 267 -121 c 0
 351 -121 429 -98 483 -65 c 0
 504 -53 522 -38 534 -20 c 1
 531 -1 l 1
 389 -1 l 2
 315 -1 282 55 282 130 c 0
 282 219 325 304 373 347 c 0
 391 363 413 370 435 370 c 0
 499 370 535 324 558 278 c 0
 584 226 601 154 601 80 c 0
 596 -92 518 -171 375 -207 c 0
 337 -218 294 -223 247 -223 c 0
 129 -223 64 -165 64 -48 c 0
336 164 m 0
 336 127 354 101 391 101 c 2
 526 101 l 1
 526 169 493 235 449 258 c 0
 437 265 426 268 412 268 c 0
 364 268 336 211 336 164 c 0
EndSplineSet
Colour: ffda6b
EndChar

StartChar: _.qaf.fina
Encoding: 65569 -1 33
GlifName: _.qaf.fina
Width: 709
VWidth: 1304
GlyphClass: 1
UnlinkRmOvrlpSave: 1
Flags: HMW
LayerCount: 2
Fore
SplineSet
64 -47 m 0
 64 64 106 150 138 232 c 1
 152 226 159 216 159 198 c 0
 159 171 146 139 137 112 c 0
 128 80 116 36 116 -3 c 0
 116 -88 180 -118 265 -118 c 0
 346 -118 423 -96 476 -64 c 0
 497 -52 515 -37 527 -19 c 1
 523 -0 l 1
 384 -0 l 2
 309 0 279 55 279 129 c 0
 279 218 320 300 368 343 c 0
 386 359 407 367 428 367 c 0
 487 367 523 324 545 283 c 0
 572 236 588 169 592 101 c 1
 709 101 l 1
 681 -0 l 1
 586 -0 l 1
 566 -116 482 -175 371 -203 c 0
 332 -214 291 -219 245 -219 c 0
 128 -219 64 -161 64 -47 c 0
331 161 m 0
 331 125 351 100 388 100 c 2
 518 100 l 1
 518 168 487 233 443 256 c 0
 431 262 420 266 406 266 c 0
 358 266 331 208 331 161 c 0
EndSplineSet
Colour: ffda6b
EndChar

StartChar: _.kaf.isol.fa
Encoding: 65570 -1 34
GlifName: _.kaf.isol.fa
Width: 860
VWidth: 1304
GlyphClass: 1
UnlinkRmOvrlpSave: 1
Flags: HMW
LayerCount: 2
Fore
SplineSet
64 156 m 0
 64 220 85 272 102 320 c 2
 122 375 l 1
 140 369 149 363 149 342 c 0
 149 322 141 301 135 283 c 0
 129 261 123 234 123 208 c 0
 123 118 208 100 297 100 c 2
 475 100 l 2
 564 100 626 122 651 188 c 1
 605 309 499 384 396 444 c 1
 400 462 412 488 421 506 c 0
 442 550 466 586 505 612 c 0
 531 629 562 641 593 655 c 0
 659 682 726 707 796 729 c 1
 779 638 l 1
 667 599 556 558 465 498 c 1
 549 445 633 378 680 288 c 0
 696 258 703 227 703 194 c 0
 703 62 610 0 476 -0 c 2
 293 -0 l 2
 170 0 64 32 64 156 c 0
EndSplineSet
Colour: ffda6b
EndChar

StartChar: _.kaf.isol.ar
Encoding: 65571 -1 35
GlifName: _.kaf.isol.ar
Width: 730
VWidth: 1304
GlyphClass: 1
UnlinkRmOvrlpSave: 1
Flags: HMW
LayerCount: 2
Fore
SplineSet
64 1 m 1
 64 101 l 1
 423 101 l 2
 530 101 579 140 579 247 c 2
 579 255 l 2
 579 310 573 358 569 418 c 0
 562 503 558 616 510 660 c 1
 577 757 l 1
 666 658 l 1
 624 585 l 1
 625 567 626 549 627 528 c 1
 627 465 l 1
 629 406 635 343 635 284 c 0
 635 160 602 67 522 23 c 0
 495 8 460 1 421 1 c 2
 64 1 l 1
EndSplineSet
Colour: ffda6b
EndChar

StartChar: _.kaf.fina.fa
Encoding: 65572 -1 36
GlifName: _.kaf.fina.fa
Width: 985
VWidth: 1304
GlyphClass: 1
UnlinkRmOvrlpSave: 1
Flags: HMW
LayerCount: 2
Fore
SplineSet
64 156 m 0
 64 221 85 272 103 321 c 2
 123 375 l 1
 140 369 149 363 149 342 c 0
 149 322 142 301 137 283 c 0
 131 261 123 234 123 208 c 0
 123 119 208 100 297 100 c 2
 475 100 l 2
 571 100 634 126 655 202 c 1
 592 303 506 384 396 444 c 1
 400 462 412 489 421 506 c 0
 442 550 467 587 506 612 c 0
 532 630 562 642 593 656 c 0
 688 697 783 725 888 756 c 1
 870 668 l 1
 728 620 578 576 465 498 c 1
 552 443 617 385 676 303 c 0
 734 223 775 100 915 100 c 2
 985 100 l 1
 985 -0 l 1
 937 -0 l 2
 802 0 740 60 688 146 c 1
 665 46 596 0 469 -0 c 2
 293 -0 l 2
 170 0 64 33 64 156 c 0
EndSplineSet
Colour: ffda6b
EndChar

StartChar: _.kaf.fina.ar
Encoding: 65573 -1 37
GlifName: _.kaf.fina.ar
Width: 848
VWidth: 1304
GlyphClass: 1
UnlinkRmOvrlpSave: 1
Flags: HMW
LayerCount: 2
Fore
SplineSet
64 -0 m 1
 64 100 l 1
 425 100 l 2
 532 100 580 138 580 246 c 2
 580 252 l 2
 580 306 573 358 568 418 c 0
 562 502 559 616 511 660 c 1
 577 756 l 1
 666 657 l 1
 624 583 l 1
 628 462 634 330 641 212 c 0
 643 152 666 100 729 100 c 2
 848 100 l 1
 822 -0 l 1
 718 -0 l 2
 644 0 614 57 608 125 c 1
 575 45 522 0 419 -0 c 2
 64 -0 l 1
EndSplineSet
Colour: ffda6b
EndChar

StartChar: _.kaf.medi
Encoding: 65574 -1 38
GlifName: _.kaf.medi
Width: 638
VWidth: 1304
GlyphClass: 1
UnlinkRmOvrlpSave: 1
Flags: HMW
LayerCount: 2
Fore
SplineSet
-50 50 m 0
 -49 76 -25 100 0 100 c 2
 145 100 l 2
 240 100 304 126 325 202 c 1
 260 303 174 384 64 444 c 1
 73 477 92 512 108 540 c 0
 140 603 198 626 263 656 c 0
 358 697 451 725 554 756 c 1
 540 668 l 1
 398 620 247 576 135 498 c 1
 221 443 285 385 344 303 c 0
 402 222 443 100 583 100 c 2
 638 100 l 1
 638 -0 l 1
 606 -0 l 2
 469 0 407 60 357 146 c 1
 332 46 265 0 137 -0 c 2
 0 -0 l 2
 -25 0 -50 24 -50 50 c 0
EndSplineSet
Colour: ffda6b
EndChar

StartChar: _.kaf.init
Encoding: 65575 -1 39
GlifName: _.kaf.init
Width: 515
VWidth: 1304
GlyphClass: 1
UnlinkRmOvrlpSave: 1
Flags: HMW
LayerCount: 2
Fore
SplineSet
-50 49 m 0
 -50 76 -27 100 -1 100 c 2
 130 100 l 2
 217 100 282 123 305 188 c 1
 261 309 155 384 50 444 c 1
 59 477 77 512 93 540 c 0
 125 603 183 626 248 656 c 0
 313 683 380 707 451 729 c 1
 433 638 l 1
 321 599 207 560 119 498 c 1
 204 446 287 378 334 289 c 0
 349 258 356 227 356 194 c 0
 356 62 264 0 130 -0 c 2
 -1 -0 l 2
 -25 0 -50 24 -50 49 c 0
EndSplineSet
Colour: ffda6b
EndChar

StartChar: _.kaf_hamze.isol.ar
Encoding: 65576 -1 40
GlifName: _.kaf_hamze.isol.ar
Width: 350
VWidth: 1304
GlyphClass: 1
UnlinkRmOvrlpSave: 1
Flags: HMW
LayerCount: 2
Fore
SplineSet
64 -0 m 1
 64 27 l 1
 114 45 177 71 218 97 c 0
 230 104 236 111 236 116 c 0
 236 127 189 128 171 130 c 0
 141 134 118 138 118 171 c 0
 118 203 139 245 153 272 c 0
 167 297 192 340 225 340 c 0
 245 340 252 319 252 299 c 0
 252 289 250 279 249 272 c 2
 245 258 l 1
 231 262 l 2
 225 263 216 266 207 266 c 0
 184 266 161 246 161 223 c 0
 161 192 248 202 270 191 c 0
 281 185 286 176 286 159 c 0
 286 116 258 78 238 53 c 0
 199 11 144 2 64 -0 c 1
EndSplineSet
Colour: ffda6b
EndChar

StartChar: _.ghaf.isol
Encoding: 65577 -1 41
GlifName: _.ghaf.isol
Width: 860
VWidth: 0
GlyphClass: 1
UnlinkRmOvrlpSave: 1
Flags: HMW
LayerCount: 2
Fore
SplineSet
64 156 m 0
 64 220 85 272 102 320 c 2
 122 375 l 1
 140 369 149 363 149 342 c 0
 149 322 141 301 135 283 c 0
 129 261 123 234 123 208 c 0
 123 118 208 100 297 100 c 2
 475 100 l 2
 564 100 626 122 651 188 c 1
 605 309 499 384 396 444 c 1
 400 462 412 488 421 506 c 0
 442 550 466 586 505 612 c 0
 531 629 562 641 593 655 c 0
 659 682 726 707 796 729 c 1
 779 638 l 1
 667 599 556 558 465 498 c 1
 549 445 633 378 680 288 c 0
 696 258 703 227 703 194 c 0
 703 62 610 0 476 -0 c 2
 293 -0 l 2
 170 0 64 32 64 156 c 0
423 614 m 1
 429 661 438 688 471 706 c 0
 542 742 628 775 709 800 c 1
 698 736 l 1
 628 710 l 2
 555 683 483 655 423 614 c 1
EndSplineSet
Colour: ffda6b
EndChar

StartChar: _.ghaf.fina
Encoding: 65578 -1 42
GlifName: _.ghaf.fina
Width: 985
VWidth: 0
GlyphClass: 1
Flags: HMW
LayerCount: 2
Fore
SplineSet
64 156 m 0
 64 221 85 272 103 321 c 2
 123 375 l 1
 140 369 149 363 149 342 c 0
 149 322 142 301 137 283 c 0
 131 261 123 234 123 208 c 0
 123 119 208 100 297 100 c 2
 475 100 l 2
 571 100 634 126 655 202 c 1
 592 303 506 384 396 444 c 1
 400 462 412 489 421 506 c 0
 442 550 467 587 506 612 c 0
 532 630 562 642 593 656 c 0
 688 697 783 725 888 756 c 1
 870 668 l 1
 728 620 578 576 465 498 c 1
 552 443 617 385 676 303 c 0
 734 223 775 100 915 100 c 2
 985 100 l 1
 985 -0 l 1
 937 -0 l 2
 802 0 740 60 688 146 c 1
 665 46 596 0 469 -0 c 2
 293 -0 l 2
 170 0 64 33 64 156 c 0
494 638 m 1
 500 686 508 714 542 732 c 0
 617 770 705 805 789 831 c 1
 778 764 l 1
 705 737 l 2
 629 709 556 680 494 638 c 1
EndSplineSet
Colour: ffda6b
EndChar

StartChar: _.lam.isol
Encoding: 65580 -1 44
GlifName: _.lam.isol
Width: 646
VWidth: 1304
GlyphClass: 1
UnlinkRmOvrlpSave: 1
Flags: HMW
LayerCount: 2
Fore
SplineSet
64 -33 m 0
 64 75 106 161 138 242 c 1
 152 236 158 226 158 208 c 0
 158 181 146 149 137 123 c 0
 127 91 116 50 116 11 c 0
 116 -74 178 -106 263 -106 c 0
 369 -106 472 -72 519 -11 c 1
 523 6 524 25 524 47 c 0
 524 272 496 494 480 706 c 1
 547 759 l 1
 561 542 575 364 582 157 c 1
 582 96 l 2
 582 50 582 10 571 -27 c 0
 537 -145 397 -206 244 -206 c 0
 128 -206 64 -147 64 -33 c 0
EndSplineSet
Colour: ffda6b
EndChar

StartChar: _.lam.fina
Encoding: 65581 -1 45
GlifName: _.lam.fina
Width: 772
VWidth: 1304
GlyphClass: 1
UnlinkRmOvrlpSave: 1
Flags: HMW
LayerCount: 2
Fore
SplineSet
64 -38 m 0
 64 72 105 158 137 239 c 1
 151 233 156 222 156 204 c 0
 156 177 144 144 137 118 c 0
 127 86 116 45 116 6 c 0
 116 -79 178 -111 263 -111 c 0
 344 -111 420 -89 473 -58 c 0
 493 -46 508 -31 519 -16 c 1
 524 2 524 20 524 43 c 0
 524 267 496 490 480 702 c 1
 547 754 l 1
 557 609 571 473 580 330 c 0
 585 251 588 163 629 120 c 0
 640 106 657 100 677 100 c 2
 772 100 l 1
 772 -0 l 1
 680 -0 l 2
 627 0 598 32 584 74 c 1
 584 -90 501 -160 369 -193 c 0
 331 -204 290 -211 244 -211 c 0
 128 -211 64 -151 64 -38 c 0
EndSplineSet
Colour: ffda6b
EndChar

StartChar: _.lam.medi
Encoding: 65582 -1 46
GlifName: _.lam.medi
Width: 498
VWidth: 1304
GlyphClass: 1
UnlinkRmOvrlpSave: 1
Flags: HMW
LayerCount: 2
Fore
SplineSet
-50 50 m 0
 -49 76 -25 100 0 100 c 0
 25 100 51 100 76 100 c 0
 183 100 223 146 223 253 c 0
 223 402 210 601 201 750 c 1
 270 801 l 1
 276 659 276 475 281 333 c 0
 285 203 304 100 438 100 c 2
 498 100 l 1
 498 -0 l 1
 441 -0 l 2
 338 0 287 48 259 129 c 1
 233 42 178 0 71 -0 c 0
 48 0 23 0 0 -0 c 0
 -25 0 -50 24 -50 50 c 0
EndSplineSet
Colour: ffda6b
EndChar

StartChar: _.lam.init
Encoding: 65583 -1 47
GlifName: _.lam.init
Width: 371
VWidth: 1304
GlyphClass: 1
UnlinkRmOvrlpSave: 1
Flags: HMW
LayerCount: 2
Fore
SplineSet
-50 50 m 0
 -50 76 -26 100 0 100 c 0
 23 100 46 100 69 100 c 0
 175 100 217 142 217 245 c 0
 217 337 209 467 205 565 c 0
 201 620 185 670 154 700 c 1
 220 795 l 1
 307 695 l 1
 268 623 l 1
 277 512 279 386 279 274 c 0
 279 105 234 0 64 -0 c 0
 43 0 21 0 0 -0 c 0
 -26 0 -50 24 -50 50 c 0
EndSplineSet
Colour: ffda6b
EndChar

StartChar: _.mim.isol
Encoding: 65584 -1 48
GlifName: _.mim.isol
Width: 559
VWidth: 1304
GlyphClass: 1
UnlinkRmOvrlpSave: 1
Flags: HMW
LayerCount: 2
Fore
SplineSet
64 -12 m 0
 64 90 118 161 191 193 c 0
 217 204 246 210 278 210 c 0
 292 210 307 209 319 208 c 1
 301 224 283 236 266 247 c 0
 250 257 235 262 219 262 c 0
 189 262 170 233 158 213 c 1
 114 224 l 1
 141 268 159 325 203 351 c 0
 214 358 230 362 247 362 c 0
 285 362 313 344 336 327 c 0
 350 316 362 306 374 292 c 2
 414 252 l 2
 437 227 463 202 495 187 c 1
 423 97 l 1
 380 107 324 118 270 118 c 0
 200 118 161 101 124 69 c 1
 118 55 118 45 118 27 c 0
 118 -7 125 -49 130 -88 c 0
 144 -184 165 -286 167 -389 c 1
 101 -365 l 1
 101 -267 80 -170 70 -83 c 0
 65 -56 64 -30 64 -12 c 0
EndSplineSet
Colour: ffda6b
EndChar

StartChar: _.mim.fina
Encoding: 65585 -1 49
GlifName: _.mim.fina
Width: 568
VWidth: 1304
GlyphClass: 1
UnlinkRmOvrlpSave: 1
Flags: HMW
LayerCount: 2
Fore
SplineSet
64 68 m 0
 64 201 160 289 278 289 c 0
 292 289 307 289 319 288 c 1
 302 303 284 316 267 326 c 0
 251 336 236 341 220 341 c 0
 189 341 170 312 158 292 c 1
 116 303 l 1
 150 361 173 442 249 442 c 0
 350 442 406 310 495 266 c 1
 425 176 l 1
 389 185 344 194 298 196 c 1
 321 139 360 100 439 100 c 2
 568 100 l 1
 568 -0 l 1
 442 -0 l 2
 315 0 272 94 247 197 c 1
 190 193 157 176 124 149 c 1
 119 135 118 124 118 107 c 0
 118 71 125 30 130 -8 c 0
 144 -105 165 -207 169 -310 c 1
 102 -286 l 1
 102 -188 81 -91 70 -4 c 0
 66 23 64 48 64 68 c 0
EndSplineSet
Colour: ffda6b
EndChar

StartChar: _.mim.medi
Encoding: 65586 -1 50
GlifName: _.mim.medi
Width: 638
VWidth: 1304
GlyphClass: 1
UnlinkRmOvrlpSave: 1
Flags: HMW
LayerCount: 2
Fore
SplineSet
-50 50 m 0
 -50 76 -25 100 0 100 c 0
 12 100 25 100 37 100 c 0
 95 100 140 111 178 166 c 0
 225 234 260 329 350 329 c 0
 419 329 451 272 466 218 c 0
 481 165 493 121 542 106 c 0
 556 102 577 100 598 100 c 2
 638 100 l 1
 638 -0 l 1
 596 -0 l 2
 528 0 487 22 461 65 c 1
 457 42 451 24 444 2 c 0
 434 -24 423 -34 407 -34 c 0
 394 -34 379 -27 359 -17 c 0
 337 -6 305 11 263 31 c 0
 236 43 216 65 205 93 c 1
 180 57 145 24 101 8 c 0
 87 3 73 0 57 -0 c 2
 0 -0 l 2
 -26 0 -50 24 -50 50 c 0
265 171 m 0
 265 106 352 86 398 66 c 1
 403 86 408 113 408 141 c 0
 408 192 392 244 335 244 c 0
 296 244 265 209 265 171 c 0
EndSplineSet
Colour: ffda6b
EndChar

StartChar: _.mim.init
Encoding: 65587 -1 51
GlifName: _.mim.init
Width: 580
VWidth: 1304
GlyphClass: 1
UnlinkRmOvrlpSave: 1
Flags: HMW
LayerCount: 2
Fore
SplineSet
-50 50 m 0
 -50 76 -26 100 0 100 c 2
 78 100 l 2
 149 100 192 123 220 165 c 0
 258 217 285 291 345 319 c 0
 359 325 375 329 392 329 c 0
 477 329 516 242 516 160 c 0
 516 102 502 48 486 2 c 0
 480 -14 471 -35 451 -35 c 0
 442 -35 425 -29 403 -17 c 0
 380 -6 347 9 305 29 c 0
 278 43 257 65 247 93 c 1
 222 56 187 23 143 8 c 0
 129 2 114 0 99 -0 c 2
 0 -0 l 2
 -26 0 -50 24 -50 50 c 0
307 170 m 0
 307 105 396 86 440 65 c 1
 447 91 452 119 452 146 c 0
 452 196 427 244 378 244 c 0
 337 244 307 209 307 170 c 0
EndSplineSet
Colour: ffda6b
EndChar

StartChar: _.nun.isol
Encoding: 65588 -1 52
GlifName: _.nun.isol
Width: 651
VWidth: 1305
GlyphClass: 1
UnlinkRmOvrlpSave: 1
Flags: HMW
LayerCount: 2
Fore
SplineSet
64 -51 m 0
 64 -28 67 -4 71 18 c 0
 85 96 111 161 137 226 c 1
 151 220 158 210 158 192 c 0
 158 183 155 171 150 156 c 0
 136 108 116 53 116 -6 c 0
 116 -92 179 -122 266 -122 c 0
 369 -122 477 -92 521 -29 c 1
 526 -9 527 13 527 36 c 0
 527 131 505 214 483 289 c 1
 545 359 l 1
 573 278 587 167 587 60 c 0
 587 35 585 13 581 -8 c 0
 558 -154 414 -222 245 -222 c 0
 128 -222 64 -164 64 -51 c 0
EndSplineSet
Colour: ffda6b
EndChar

StartChar: _.nun.fina
Encoding: 65589 -1 53
GlifName: _.nun.fina
Width: 763
VWidth: 1413
GlyphClass: 1
UnlinkRmOvrlpSave: 1
Flags: HMW
LayerCount: 2
Fore
SplineSet
64 -42 m 0
 64 -20 66 4 70 26 c 0
 84 104 111 169 137 234 c 1
 151 228 158 218 158 200 c 0
 158 190 155 180 151 164 c 0
 136 117 114 60 114 2 c 0
 114 -83 178 -115 262 -115 c 0
 365 -115 473 -82 519 -19 c 1
 523 -2 523 16 523 39 c 0
 523 54 521 73 519 95 c 0
 508 166 493 243 470 301 c 1
 533 369 l 1
 549 315 562 247 576 194 c 0
 594 125 641 100 732 100 c 2
 763 100 l 1
 763 -0 l 1
 723 -0 l 2
 663 0 619 13 585 45 c 1
 580 -136 430 -214 245 -214 c 0
 128 -214 64 -155 64 -42 c 0
EndSplineSet
Colour: ffda6b
EndChar

StartChar: _.vav.isol
Encoding: 65590 -1 54
GlifName: _.vav.isol
Width: 642
VWidth: 1304
GlyphClass: 1
UnlinkRmOvrlpSave: 1
Flags: HMW
LayerCount: 2
Fore
SplineSet
64 -129 m 1
 73 -113 79 -101 100 -101 c 0
 136 -101 203 -139 279 -139 c 0
 371 -139 437 -98 476 -46 c 0
 487 -30 497 -15 503 -0 c 1
 372 -0 l 2
 299 0 266 55 266 128 c 0
 266 217 306 298 356 340 c 0
 373 356 393 363 415 363 c 0
 480 363 515 313 538 269 c 0
 564 215 578 153 578 91 c 0
 578 5 553 -79 499 -139 c 0
 461 -182 401 -218 330 -218 c 0
 287 -218 240 -199 203 -185 c 0
 157 -169 106 -145 64 -129 c 1
319 159 m 0
 319 125 337 100 373 100 c 2
 506 100 l 1
 506 168 474 228 430 253 c 0
 419 259 407 262 393 262 c 0
 346 262 319 205 319 159 c 0
EndSplineSet
Colour: ffda6b
EndChar

StartChar: _.vav.fina
Encoding: 65591 -1 55
GlifName: _.vav.fina
Width: 678
VWidth: 1304
GlyphClass: 1
UnlinkRmOvrlpSave: 1
Flags: HMW
LayerCount: 2
Fore
SplineSet
64 -129 m 1
 73 -113 79 -101 100 -101 c 0
 136 -101 203 -139 279 -139 c 0
 371 -139 437 -98 476 -46 c 0
 487 -30 497 -15 503 -0 c 1
 372 -0 l 2
 299 0 266 55 266 128 c 0
 266 217 306 298 356 340 c 0
 373 356 393 363 415 363 c 0
 480 363 515 313 538 269 c 0
 563 217 576 159 577 100 c 1
 678 100 l 1
 678 -0 l 1
 568 -0 l 1
 556 -53 533 -101 499 -139 c 0
 461 -182 401 -218 330 -218 c 0
 287 -218 240 -199 203 -185 c 0
 157 -169 106 -145 64 -129 c 1
319 159 m 0
 319 125 337 100 373 100 c 2
 506 100 l 1
 506 168 474 228 430 253 c 0
 419 259 407 262 393 262 c 0
 346 262 319 205 319 159 c 0
EndSplineSet
Colour: ffda6b
EndChar

StartChar: _.dal.isol
Encoding: 65592 -1 56
GlifName: _.dal.isol
Width: 502
VWidth: 1304
GlyphClass: 1
UnlinkRmOvrlpSave: 1
Flags: HMW
LayerCount: 2
Fore
SplineSet
378 133 m 0
 378 258 306 359 212 399 c 1
 257 491 l 1
 368 445 438 329 438 175 c 0
 438 6 311 -12 172 -12 c 0
 97 -12 64 14 64 88 c 0
 64 118 68 145 69 173 c 1
 139 173 72 80 170 80 c 0
 254 80 317 85 377 107 c 1
 378 116 378 125 378 133 c 0
EndSplineSet
Colour: ffda6b
EndChar

StartChar: _.dal.fina
Encoding: 65593 -1 57
GlifName: _.dal.fina
Width: 563
VWidth: 1304
GlyphClass: 1
UnlinkRmOvrlpSave: 1
Flags: HMW
LayerCount: 2
Fore
SplineSet
64 86 m 0
 64 113 68 143 69 173 c 1
 100 172 108 157 110 130 c 0
 114 93 130 82 171 82 c 0
 271 82 365 84 365 182 c 0
 365 241 355 288 344 351 c 0
 339 384 332 426 323 475 c 1
 388 533 l 1
 429 219 l 1
 440 141 476 100 563 100 c 1
 563 -0 l 1
 477 0 424 37 397 100 c 1
 375 14 335 -11 173 -11 c 0
 81 -11 64 31 64 86 c 0
EndSplineSet
Colour: ffda6b
EndChar

StartChar: _.ree.isol
Encoding: 65594 -1 58
GlifName: _.ree.isol
Width: 657
VWidth: 1304
GlyphClass: 1
UnlinkRmOvrlpSave: 1
Flags: HMW
LayerCount: 2
Fore
SplineSet
64 -127 m 1
 75 -112 82 -100 103 -100 c 0
 124 -100 146 -111 164 -117 c 0
 191 -126 221 -132 257 -132 c 0
 317 -132 368 -105 409 -80 c 0
 475 -37 528 14 528 122 c 0
 528 197 512 266 486 319 c 1
 552 377 l 1
 580 312 593 243 593 157 c 0
 593 15 547 -83 474 -149 c 0
 440 -180 398 -202 348 -212 c 0
 338 -214 330 -216 325 -216 c 0
 283 -216 238 -199 202 -184 c 0
 158 -168 106 -144 64 -127 c 1
EndSplineSet
Colour: ffda6b
EndChar

StartChar: _.ree.fina
Encoding: 65595 -1 59
GlifName: _.ree.fina
Width: 751
VWidth: 1304
GlyphClass: 1
UnlinkRmOvrlpSave: 1
Flags: HMW
LayerCount: 2
Fore
SplineSet
64 -129 m 1
 74 -114 82 -101 105 -101 c 0
 125 -101 144 -111 165 -117 c 0
 191 -127 220 -134 256 -134 c 0
 318 -134 368 -108 407 -83 c 0
 475 -39 528 9 528 119 c 0
 528 135 527 153 527 171 c 0
 525 188 522 207 521 225 c 0
 516 258 509 292 503 322 c 1
 563 380 l 1
 572 306 579 227 601 168 c 0
 619 122 652 100 716 100 c 2
 751 100 l 1
 751 -0 l 1
 710 -0 l 2
 652 0 614 19 584 52 c 1
 568 -35 527 -102 474 -150 c 0
 440 -181 397 -205 347 -216 c 0
 337 -217 329 -217 325 -217 c 0
 282 -217 238 -200 201 -185 c 0
 157 -169 106 -146 64 -129 c 1
EndSplineSet
Colour: ffda6b
EndChar

StartChar: _.he8.isol
Encoding: 65596 -1 60
GlifName: _.he8.isol
Width: 436
VWidth: 1304
GlyphClass: 1
UnlinkRmOvrlpSave: 1
Flags: HMW
LayerCount: 2
Fore
SplineSet
64 114 m 0
 64 215 116 286 159 346 c 1
 141 357 118 362 96 369 c 1
 135 461 l 1
 236 429 315 361 353 266 c 0
 364 234 372 202 372 166 c 0
 372 71 347 0 250 -0 c 2
 165 -0 l 2
 96 0 64 45 64 114 c 0
121 152 m 0
 121 119 143 100 175 100 c 2
 309 100 l 1
 310 105 310 108 310 112 c 2
 310 124 l 2
 310 209 264 269 215 310 c 1
 179 279 147 242 129 196 c 0
 123 181 121 166 121 152 c 0
EndSplineSet
Colour: ffda6b
EndChar

StartChar: _.he8.fina
Encoding: 65597 -1 61
GlifName: _.he8.fina
Width: 527
VWidth: 1304
GlyphClass: 1
UnlinkRmOvrlpSave: 1
Flags: HMW
LayerCount: 2
Fore
SplineSet
64 193 m 0
 64 231 85 263 100 288 c 0
 147 359 236 395 326 423 c 1
 316 456 304 484 288 511 c 1
 361 585 l 1
 395 521 407 433 407 335 c 0
 407 286 405 248 405 199 c 0
 405 139 442 100 501 100 c 2
 527 100 l 1
 527 -0 l 1
 500 -0 l 2
 390 0 352 56 341 156 c 1
 300 91 l 1
 219 97 122 111 79 157 c 0
 68 168 64 179 64 193 c 0
149 241 m 1
 158 211 230 204 263 199 c 0
 286 197 314 194 341 194 c 1
 341 346 l 1
 286 332 234 313 196 288 c 0
 175 275 153 262 149 241 c 1
EndSplineSet
Colour: ffda6b
EndChar

StartChar: _.he8.medi
Encoding: 65598 -1 62
GlifName: _.he8.medi
Width: 499
VWidth: 1304
GlyphClass: 1
UnlinkRmOvrlpSave: 1
Flags: HMW
LayerCount: 2
Fore
SplineSet
-50 50 m 0
 -50 76 -26 100 0 100 c 2
 20 100 l 2
 31 100 40 99 48 99 c 0
 81 99 99 100 141 108 c 1
 179 231 233 339 296 444 c 1
 353 400 389 340 389 266 c 0
 389 197 364 144 333 100 c 1
 499 100 l 1
 499 -0 l 1
 386 -0 l 1
 391 -23 394 -51 394 -79 c 0
 394 -144 378 -198 344 -229 c 0
 330 -240 314 -245 293 -245 c 0
 209 -245 166 -170 145 -105 c 0
 135 -75 127 -37 127 -0 c 1
 0 -0 l 2
 -26 0 -50 24 -50 50 c 0
189 8 m 1
 196 -49 231 -102 268 -129 c 0
 282 -139 297 -144 313 -144 c 0
 341 -144 353 -135 353 -109 c 0
 353 -55 318 -18 279 -1 c 0
 262 6 241 10 218 10 c 0
 208 10 199 9 189 8 c 1
197 118 m 1
 259 138 310 172 337 226 c 1
 333 262 305 294 287 315 c 1
 256 251 220 188 197 118 c 1
EndSplineSet
Colour: ffda6b
EndChar

StartChar: _.he8.init
Encoding: 65599 -1 63
GlifName: _.he8.init
Width: 700
VWidth: 1304
GlyphClass: 1
UnlinkRmOvrlpSave: 1
Flags: HMW
LayerCount: 2
Fore
SplineSet
-50 50 m 0
 -49 76 -25 100 0 100 c 2
 119 100 l 2
 160 100 190 102 222 112 c 1
 191 134 170 156 170 204 c 0
 170 277 213 328 252 364 c 0
 267 378 284 389 300 396 c 1
 279 407 257 422 236 433 c 1
 286 523 l 1
 391 461 504 393 577 298 c 0
 608 256 636 207 636 139 c 0
 636 76 615 21 583 -16 c 0
 576 -25 568 -30 557 -30 c 0
 541 -29 534 -23 518 -17 c 0
 453 9 389 33 314 64 c 1
 252 21 186 0 116 -0 c 2
 0 -0 l 2
 -25 0 -50 24 -50 50 c 0
239 245 m 0
 239 195 289 168 327 156 c 1
 363 176 394 199 414 235 c 1
 414 288 393 342 339 342 c 0
 293 342 263 310 248 280 c 0
 242 268 239 256 239 245 c 0
399 127 m 1
 457 104 507 84 564 63 c 1
 570 74 574 87 574 104 c 0
 574 158 545 196 518 226 c 0
 507 237 495 249 484 256 c 1
 461 204 437 164 399 127 c 1
EndSplineSet
Colour: ffda6b
EndChar

StartChar: _.yeh.fina
Encoding: 65600 -1 64
GlifName: _.yeh.fina
Width: 731
VWidth: 1304
GlyphClass: 1
UnlinkRmOvrlpSave: 1
Flags: HMW
LayerCount: 2
Fore
SplineSet
64 -33 m 0
 64 72 104 157 138 231 c 0
 150 259 164 285 176 310 c 1
 186 304 192 296 192 280 c 0
 192 266 188 250 181 232 c 0
 158 173 123 105 123 24 c 0
 123 -79 198 -113 303 -113 c 0
 400 -113 495 -91 570 -61 c 1
 512 -15 427 -3 336 8 c 1
 379 100 l 1
 731 100 l 1
 731 -0 l 1
 582 -0 l 1
 607 -10 651 -29 651 -62 c 0
 651 -78 644 -91 632 -105 c 0
 589 -153 501 -181 425 -196 c 0
 375 -208 316 -217 261 -217 c 0
 138 -217 64 -157 64 -33 c 0
EndSplineSet
Colour: ffda6b
EndChar

StartChar: _.yeh.isol
Encoding: 65601 -1 65
GlifName: _.yeh.isol
Width: 763
VWidth: 1304
GlyphClass: 1
UnlinkRmOvrlpSave: 1
Flags: HMW
LayerCount: 2
Fore
SplineSet
64 -19 m 0
 64 75 92 151 119 221 c 0
 130 247 139 273 149 298 c 1
 163 292 166 282 166 264 c 0
 166 204 121 128 121 37 c 0
 121 -74 193 -122 305 -122 c 0
 415 -122 511 -79 585 -41 c 0
 597 -35 640 -12 640 -3 c 0
 640 3 622 4 608 4 c 0
 603 4 599 4 596 4 c 0
 558 4 519 0 483 -0 c 0
 407 0 346 24 346 100 c 0
 346 148 364 194 384 231 c 0
 420 297 475 364 544 395 c 0
 567 406 586 410 611 410 c 0
 647 410 664 382 664 346 c 0
 664 321 658 304 652 284 c 1
 636 298 621 305 593 305 c 0
 541 305 498 274 468 248 c 0
 442 223 406 186 406 144 c 0
 406 102 468 100 516 100 c 2
 586 100 l 2
 649 100 699 97 699 34 c 0
 699 -7 689 -41 666 -69 c 0
 617 -132 517 -179 426 -205 c 0
 382 -217 334 -228 282 -228 c 0
 140 -228 64 -158 64 -19 c 0
EndSplineSet
Colour: ffda6b
EndChar

StartChar: _.hamze.isol
Encoding: 65602 -1 66
GlifName: _.hamze.isol
Width: 355
VWidth: 1304
GlyphClass: 2
Flags: HMW
LayerCount: 2
Fore
SplineSet
64 47 m 1
 87 63 113 83 135 100 c 1
 117 117 l 1
 100 131 81 151 81 181 c 0
 81 229 123 258 160 272 c 0
 174 276 189 279 201 279 c 0
 211 279 222 278 233 274 c 1
 233 216 l 1
 221 218 213 221 199 221 c 0
 171 221 148 212 130 200 c 1
 149 175 177 155 210 145 c 1
 291 180 l 1
 275 106 l 1
 194 81 128 35 68 -12 c 1
 64 47 l 1
EndSplineSet
Colour: ffda6b
EndChar

StartChar: _.keshide.medi
Encoding: 65603 -1 67
GlifName: _.keshide.medi
Width: 215
VWidth: 1304
GlyphClass: 2
Flags: HMW
LayerCount: 2
Fore
SplineSet
-50 -0 m 1
 -50 100 l 1
 215 100 l 1
 215 -0 l 1
 -50 -0 l 1
EndSplineSet
Colour: ffda6b
EndChar

StartChar: _.dot.1u
Encoding: 65604 -1 68
GlifName: _.dot.1u
Width: 0
VWidth: 1304
GlyphClass: 2
Flags: HMW
LayerCount: 2
Fore
SplineSet
0 48 m 1
 43 138 l 1
 113 106 l 2
 126 101 133 93 133 80 c 0
 133 74 132 67 128 59 c 2
 101 2 l 1
 0 48 l 1
EndSplineSet
Colour: ffda6b
EndChar

StartChar: _.dot.2u
Encoding: 65605 -1 69
GlifName: _.dot.2u
Width: 0
VWidth: 1304
GlyphClass: 2
UnlinkRmOvrlpSave: 1
Flags: HMW
LayerCount: 2
Fore
SplineSet
0 44 m 1
 42 129 l 1
 108 100 l 2
 120 95 127 87 127 75 c 0
 127 69 126 63 122 55 c 2
 97 -0 l 1
 0 44 l 1
160 44 m 1
 202 129 l 1
 268 100 l 2
 280 95 287 87 287 75 c 0
 287 69 286 63 282 55 c 2
 257 -0 l 1
 160 44 l 1
EndSplineSet
Colour: ffda6b
EndChar

StartChar: _.dot.3u
Encoding: 65606 -1 70
GlifName: _.dot.3u
Width: 0
VWidth: 1304
GlyphClass: 2
UnlinkRmOvrlpSave: 1
Flags: HMW
LayerCount: 2
Fore
SplineSet
0 44 m 1
 42 129 l 1
 108 100 l 2
 120 95 127 87 127 75 c 0
 127 69 126 63 122 55 c 2
 97 -0 l 1
 0 44 l 1
70 173 m 1
 112 260 l 1
 179 230 l 2
 191 224 197 217 197 205 c 0
 197 199 196 192 192 184 c 2
 167 130 l 1
 70 173 l 1
160 44 m 1
 202 129 l 1
 268 100 l 2
 280 95 287 87 287 75 c 0
 287 69 286 63 282 55 c 2
 257 -0 l 1
 160 44 l 1
EndSplineSet
Colour: ffda6b
EndChar

StartChar: _.dot.1d
Encoding: 65607 -1 71
GlifName: _.dot.1d
Width: 0
VWidth: 1304
GlyphClass: 2
Flags: HMW
LayerCount: 2
Fore
SplineSet
0 -93 m 1
 43 -3 l 1
 113 -33 l 2
 126 -39 133 -47 133 -60 c 0
 133 -66 132 -73 128 -81 c 2
 101 -138 l 1
 0 -93 l 1
EndSplineSet
Colour: ffda6b
EndChar

StartChar: _.dot.2d
Encoding: 65608 -1 72
GlifName: _.dot.2d
Width: 0
VWidth: 1304
GlyphClass: 2
UnlinkRmOvrlpSave: 1
Flags: HMW
LayerCount: 2
Fore
SplineSet
0 -86 m 1
 42 -0 l 1
 108 -31 l 2
 120 -36 127 -43 127 -55 c 0
 127 -61 126 -67 122 -75 c 2
 97 -131 l 1
 0 -86 l 1
160 -86 m 1
 202 -0 l 1
 268 -31 l 2
 280 -36 287 -43 287 -55 c 0
 287 -61 286 -67 282 -75 c 2
 257 -131 l 1
 160 -86 l 1
EndSplineSet
Colour: ffda6b
EndChar

StartChar: _.dot.3d
Encoding: 65609 -1 73
GlifName: _.dot.3d
Width: 0
VWidth: 1304
GlyphClass: 2
UnlinkRmOvrlpSave: 1
Flags: HMW
LayerCount: 2
Fore
SplineSet
0 -86 m 1
 42 -0 l 1
 108 -31 l 2
 120 -36 127 -43 127 -55 c 0
 127 -61 126 -67 122 -75 c 2
 97 -131 l 1
 0 -86 l 1
101 -227 m 1
 142 -141 l 1
 208 -170 l 2
 221 -176 228 -183 228 -195 c 0
 228 -201 227 -208 223 -216 c 2
 197 -270 l 1
 101 -227 l 1
160 -86 m 1
 202 -0 l 1
 268 -31 l 2
 280 -36 287 -43 287 -55 c 0
 287 -61 286 -67 282 -75 c 2
 257 -131 l 1
 160 -86 l 1
EndSplineSet
Colour: ffda6b
EndChar

StartChar: _.num.0
Encoding: 65611 -1 75
GlifName: _.num.0
Width: 320
VWidth: 1424
GlyphClass: 2
Flags: HMW
LayerCount: 2
Fore
SplineSet
75 256 m 1
 140 368 l 1
 171 343 209 312 245 295 c 1
 178 192 l 1
 146 218 114 240 75 256 c 1
EndSplineSet
Colour: ffda6b
EndChar

StartChar: _.num.1
Encoding: 65612 -1 76
GlifName: _.num.1
Width: 301
VWidth: 1331
GlyphClass: 2
Flags: HMW
LayerCount: 2
Fore
SplineSet
75 714 m 1
 175 800 l 1
 223 708 226 568 226 431 c 2
 226 -3 l 1
 149 -12 l 1
 149 362 l 2
 149 460 135 564 112 640 c 0
 103 671 90 697 75 714 c 1
EndSplineSet
Colour: ffda6b
EndChar

StartChar: _.num.2
Encoding: 65613 -1 77
GlifName: _.num.2
Width: 555
VWidth: 1331
GlyphClass: 2
Flags: HMW
LayerCount: 2
Fore
SplineSet
145 358 m 2
 145 495 127 633 75 718 c 1
 173 800 l 1
 188 740 206 674 247 641 c 0
 262 629 279 624 300 624 c 0
 395 624 408 690 412 780 c 1
 480 780 l 1
 480 767 l 2
 480 660 448 572 384 529 c 0
 361 513 331 505 295 505 c 0
 268 505 243 510 221 521 c 1
 221 -9 l 1
 145 -17 l 1
 145 358 l 2
EndSplineSet
Colour: ffda6b
EndChar

StartChar: _.num.3
Encoding: 65614 -1 78
GlifName: _.num.3
Width: 732
VWidth: 1331
GlyphClass: 2
Flags: HMW
LayerCount: 2
Fore
SplineSet
75 718 m 1
 172 800 l 1
 192 746 204 679 241 642 c 0
 253 628 269 624 286 624 c 0
 372 624 386 695 386 780 c 1
 448 780 l 1
 453 705 455 625 534 625 c 0
 595 625 597 696 597 750 c 0
 597 754 597 758 597 762 c 1
 655 772 l 1
 656 757 657 742 657 727 c 0
 657 631 620 505 523 505 c 0
 463 505 427 543 412 589 c 1
 392 543 345 506 283 506 c 0
 260 506 238 512 221 521 c 1
 221 -5 l 1
 144 -15 l 1
 144 359 l 2
 144 492 128 634 75 718 c 1
EndSplineSet
Colour: ffda6b
EndChar

StartChar: _.num.4.fa
Encoding: 65615 -1 79
GlifName: _.num.4.fa
Width: 623
VWidth: 1331
GlyphClass: 2
Flags: HMW
LayerCount: 2
Fore
SplineSet
143 352 m 2
 143 484 124 616 75 700 c 1
 170 780 l 1
 186 727 204 680 209 621 c 1
 236 683 266 749 321 783 c 0
 339 794 360 800 383 800 c 0
 441 800 486 766 512 730 c 1
 476 682 l 1
 450 700 419 711 380 711 c 0
 318 711 278 668 278 610 c 0
 278 562 332 550 379 550 c 0
 452 550 499 573 543 605 c 1
 548 534 l 1
 493 486 430 452 329 452 c 0
 287 452 249 463 218 477 c 1
 218 -4 l 1
 143 -12 l 1
 143 352 l 2
EndSplineSet
Colour: ffda6b
EndChar

StartChar: _.num.5.fa
Encoding: 65617 -1 81
GlifName: _.num.5.fa
Width: 695
VWidth: 1331
GlyphClass: 2
Flags: HMW
LayerCount: 2
Fore
SplineSet
75 143 m 0
 75 238 119 319 160 384 c 0
 204 455 265 528 318 587 c 1
 288 621 246 668 219 702 c 1
 287 800 l 1
 374 678 487 574 562 442 c 0
 593 385 620 320 620 240 c 0
 620 143 588 55 533 8 c 0
 512 -9 488 -16 458 -16 c 0
 385 -16 351 41 341 104 c 1
 318 47 274 -6 199 -6 c 0
 119 -6 75 62 75 143 c 0
148 202 m 0
 148 150 175 114 225 114 c 0
 300 114 314 186 315 272 c 1
 377 272 l 1
 381 199 388 106 462 106 c 0
 515 106 548 153 548 207 c 0
 548 273 514 325 487 369 c 0
 448 432 406 483 357 541 c 1
 302 478 260 425 214 359 c 0
 191 325 171 287 157 248 c 0
 151 231 148 217 148 202 c 0
EndSplineSet
Colour: ffda6b
EndChar

StartChar: _.num.6.fa
Encoding: 65619 -1 83
GlifName: _.num.6.fa
Width: 605
VWidth: 1331
GlyphClass: 2
Flags: HMW
LayerCount: 2
Fore
SplineSet
75 1 m 1
 118 171 176 298 277 412 c 1
 188 416 118 451 118 545 c 0
 118 610 154 674 187 713 c 0
 218 752 270 800 335 800 c 0
 382 800 422 774 450 753 c 1
 443 678 l 1
 413 693 373 706 331 706 c 0
 257 706 189 664 189 591 c 0
 189 533 251 521 309 521 c 0
 409 521 461 570 530 604 c 1
 519 476 l 1
 413 446 336 361 279 280 c 0
 221 200 172 104 150 -4 c 1
 75 1 l 1
EndSplineSet
Colour: ffda6b
EndChar

StartChar: _.num.7
Encoding: 65621 -1 85
GlifName: _.num.7
Width: 688
VWidth: 1331
GlyphClass: 2
Flags: HMW
LayerCount: 2
Fore
SplineSet
75 700 m 1
 146 800 l 1
 267 699 325 493 345 295 c 1
 384 501 460 671 579 799 c 1
 613 706 l 1
 531 621 472 496 431 369 c 0
 397 257 372 119 372 -14 c 1
 295 -31 l 1
 295 -6 l 1
 290 237 246 471 148 624 c 0
 127 657 101 683 75 700 c 1
EndSplineSet
Colour: ffda6b
EndChar

StartChar: _.num.8
Encoding: 65622 -1 86
GlifName: _.num.8
Width: 702
VWidth: 1331
GlyphClass: 2
Flags: HMW
LayerCount: 2
Fore
SplineSet
75 45 m 1
 197 173 277 380 309 594 c 0
 319 662 324 724 324 783 c 1
 401 800 l 1
 401 775 l 2
 401 580 439 391 496 246 c 0
 526 170 567 91 627 52 c 1
 554 -51 l 1
 465 24 414 158 383 288 c 0
 369 345 357 406 351 466 c 1
 310 254 234 83 112 -49 c 1
 75 45 l 1
EndSplineSet
Colour: ffda6b
EndChar

StartChar: _.num.9
Encoding: 65623 -1 87
GlifName: _.num.9
Width: 553
VWidth: 1331
GlyphClass: 2
Flags: HMW
LayerCount: 2
Fore
SplineSet
75 509 m 0
 75 621 134 719 196 772 c 0
 219 790 244 800 270 800 c 0
 387 800 409 681 414 564 c 0
 418 516 417 461 417 401 c 0
 417 263 424 139 478 54 c 1
 379 -30 l 1
 348 65 340 180 340 303 c 2
 340 393 l 1
 302 391 250 380 209 380 c 0
 118 380 75 422 75 509 c 0
138 557 m 0
 138 523 157 496 191 496 c 2
 343 496 l 1
 343 570 327 632 288 666 c 0
 273 678 256 683 233 683 c 0
 175 683 138 612 138 557 c 0
EndSplineSet
Colour: ffda6b
EndChar

StartChar: _.sing.backslash
Encoding: 65624 -1 88
GlifName: _.sing.backslash
Width: 398
VWidth: 1197
GlyphClass: 2
Flags: HMW
LayerCount: 2
Fore
SplineSet
50 -22 m 1
 283 800 l 1
 348 800 l 1
 121 -22 l 1
 50 -22 l 1
EndSplineSet
Colour: ffda6b
EndChar

StartChar: _.sing.slash
Encoding: 65625 -1 89
GlifName: _.sing.slash
Width: 398
VWidth: 1197
GlyphClass: 2
Flags: HMW
LayerCount: 2
Fore
SplineSet
50 800 m 1
 116 800 l 1
 348 -22 l 1
 277 -22 l 1
 50 800 l 1
EndSplineSet
Colour: ffda6b
EndChar

StartChar: _.sing.tajob
Encoding: 65626 -1 90
GlifName: _.sing.tajob
Width: 255
VWidth: 1197
GlyphClass: 2
Flags: HMW
LayerCount: 2
Fore
SplineSet
50 61 m 1
 110 165 l 1
 137 142 173 113 205 98 c 1
 145 2 l 1
 114 28 83 47 50 61 c 1
70 748 m 1
 167 800 l 1
 163 702 161 592 161 489 c 0
 160 452 160 416 160 380 c 0
 160 369 159 357 159 346 c 0
 159 323 160 301 160 280 c 2
 160 196 l 1
 92 180 l 1
 91 333 87 460 83 598 c 0
 81 656 77 700 70 748 c 1
EndSplineSet
Colour: ffda6b
EndChar

StartChar: _.sing.soal
Encoding: 65627 -1 91
GlifName: _.sing.soal
Width: 393
VWidth: 1304
GlyphClass: 2
Flags: HMW
LayerCount: 2
Fore
SplineSet
50 636 m 0
 50 709 97 760 150 786 c 0
 170 795 190 800 212 800 c 0
 260 800 306 782 336 762 c 1
 328 674 l 1
 294 692 252 710 205 710 c 0
 159 710 131 697 109 670 c 1
 184 612 253 568 279 466 c 0
 293 412 293 353 293 280 c 1
 237 266 l 1
 237 385 207 469 144 521 c 0
 116 544 84 565 64 593 c 0
 54 604 50 619 50 636 c 0
188 56 m 1
 249 159 l 1
 276 138 312 107 343 92 c 1
 283 -3 l 1
 255 22 225 40 188 56 c 1
EndSplineSet
Colour: ffda6b
EndChar

StartChar: _.sing.beezafeh
Encoding: 65628 -1 92
GlifName: _.sing.beezafeh
Width: 494
VWidth: 1352
GlyphClass: 2
Flags: HMW
LayerCount: 2
Fore
SplineSet
50 263 m 1
 50 335 l 1
 211 335 l 1
 211 495 l 1
 283 495 l 1
 283 335 l 1
 444 335 l 1
 444 263 l 1
 283 263 l 1
 283 103 l 1
 211 103 l 1
 211 263 l 1
 50 263 l 1
EndSplineSet
Colour: ffda6b
EndChar

StartChar: _.sing.menha
Encoding: 65629 -1 93
GlifName: _.sing.menha
Width: 505
VWidth: 0
GlyphClass: 2
Flags: HMW
LayerCount: 2
Fore
SplineSet
50 150 m 1
 73 246 l 1
 455 246 l 1
 429 150 l 1
 50 150 l 1
EndSplineSet
Colour: ffda6b
EndChar

StartChar: _.sing.khateh_tire
Encoding: 65630 -1 94
GlifName: _.sing.khateh_tire
Width: 200
VWidth: 0
GlyphClass: 2
Flags: HMW
LayerCount: 2
Fore
SplineSet
50 -100 m 1
 50 300 l 1
 150 300 l 1
 150 -100 l 1
 50 -100 l 1
50 401 m 1
 50 801 l 1
 150 801 l 1
 150 401 l 1
 50 401 l 1
EndSplineSet
Colour: ffda6b
EndChar

StartChar: _.sing.virgul
Encoding: 65631 -1 95
GlifName: _.sing.virgul
Width: 253
VWidth: 1197
GlyphClass: 2
Flags: HMW
LayerCount: 2
Fore
SplineSet
50 138 m 0
 50 179 66 216 83 247 c 0
 103 284 128 321 153 352 c 1
 193 320 l 1
 171 293 146 258 131 225 c 0
 125 213 123 203 123 192 c 0
 123 160 146 139 163 123 c 0
 173 114 181 107 190 101 c 0
 199 95 203 89 203 85 c 0
 203 70 188 50 179 38 c 0
 172 27 157 5 141 5 c 0
 139 5 134 7 124 13 c 0
 88 34 50 80 50 138 c 0
EndSplineSet
Colour: ffda6b
EndChar

StartChar: _.sing.dot_virgul
Encoding: 65632 -1 96
GlifName: _.sing.dot_virgul
Width: 261
VWidth: 1304
GlyphClass: 2
Flags: HMW
LayerCount: 2
Fore
SplineSet
50 59 m 1
 114 165 l 1
 142 142 178 112 211 96 c 1
 150 -1 l 1
 119 24 88 43 50 59 c 1
60 401 m 0
 60 442 75 477 91 505 c 0
 111 541 133 576 158 604 c 1
 195 573 l 1
 173 550 151 516 136 484 c 0
 131 473 129 463 129 453 c 0
 129 410 170 383 193 365 c 0
 202 359 204 355 204 351 c 0
 204 337 190 316 183 306 c 0
 176 295 160 274 146 274 c 0
 144 274 139 277 129 283 c 0
 96 304 60 346 60 401 c 0
EndSplineSet
Colour: ffda6b
EndChar

StartChar: _.sing.2noqte
Encoding: 65633 -1 97
GlifName: _.sing.2noqte
Width: 251
VWidth: 1352
GlyphClass: 2
Flags: HMW
LayerCount: 2
Fore
SplineSet
50 59 m 1
 109 160 l 1
 136 137 170 111 201 95 c 1
 142 1 l 1
 114 24 86 43 50 59 c 1
50 331 m 1
 109 432 l 1
 136 411 170 383 201 367 c 1
 142 273 l 1
 114 298 87 316 50 331 c 1
EndSplineSet
Colour: ffda6b
EndChar

StartChar: _.sing.noqte
Encoding: 65634 -1 98
GlifName: _.sing.noqte
Width: 295
VWidth: 1352
GlyphClass: 2
Flags: HMW
LayerCount: 2
Fore
SplineSet
50 97 m 1
 148 196 l 1
 245 97 l 1
 148 1 l 1
 50 97 l 1
EndSplineSet
Colour: ffda6b
EndChar

StartChar: _.sing.gheiomeh.right
Encoding: 65635 -1 99
GlifName: _.sing.gheiomeh.right
Width: 397
VWidth: 1352
GlyphClass: 2
Flags: HMW
LayerCount: 2
Fore
SplineSet
50 189 m 0
 50 281 102 353 156 407 c 1
 192 369 l 1
 164 342 143 316 129 290 c 0
 115 264 109 240 109 213 c 0
 109 153 137 122 178 85 c 1
 147 -1 l 1
 92 40 50 105 50 189 c 0
221 205 m 0
 221 283 264 344 310 388 c 1
 344 356 l 1
 300 313 278 270 278 231 c 0
 278 210 284 190 294 172 c 0
 304 155 322 135 347 114 c 1
 316 29 l 1
 263 66 221 125 221 205 c 0
EndSplineSet
Colour: ffda6b
EndChar

StartChar: _.sing.gheiomeh.left
Encoding: 65636 -1 100
GlifName: _.sing.gheiomeh.left
Width: 395
VWidth: 1352
GlyphClass: 2
Flags: HMW
LayerCount: 2
Fore
SplineSet
50 284 m 1
 82 369 l 1
 134 331 176 272 176 193 c 0
 176 114 134 56 88 10 c 1
 54 43 l 1
 97 87 119 127 119 168 c 0
 119 225 88 252 50 284 c 1
205 29 m 1
 248 71 289 115 289 184 c 0
 289 244 260 275 219 312 c 1
 249 399 l 1
 304 358 345 294 345 209 c 0
 345 115 294 44 242 -9 c 1
 205 29 l 1
EndSplineSet
Colour: ffda6b
EndChar

StartChar: _.sing.parantez.right
Encoding: 65637 -1 101
GlifName: _.sing.parantez.right
Width: 281
VWidth: 1352
GlyphClass: 2
Flags: HMW
LayerCount: 2
Fore
SplineSet
102 301 m 0
 102 155 158 49 231 -40 c 1
 178 -101 l 1
 107 -12 50 111 50 269 c 0
 50 441 116 583 196 695 c 1
 225 668 l 1
 158 560 102 453 102 301 c 0
EndSplineSet
Colour: ffda6b
EndChar

StartChar: _.sing.parantez.left
Encoding: 65638 -1 102
GlifName: _.sing.parantez.left
Width: 280
VWidth: 1352
GlyphClass: 2
Flags: HMW
LayerCount: 2
Fore
SplineSet
50 645 m 1
 103 706 l 1
 162 630 205 534 225 416 c 0
 227 390 230 363 230 336 c 0
 230 162 163 21 84 -90 c 1
 55 -62 l 1
 97 2 127 67 148 127 c 0
 169 187 178 246 178 304 c 0
 178 450 121 555 50 645 c 1
EndSplineSet
Colour: ffda6b
EndChar

StartChar: _.sing.parantez_tazeeni.right
Encoding: 65639 -1 103
GlifName: _.sing.parantez_tazeeni.right
Width: 281
VWidth: 0
GlyphClass: 2
Flags: HMW
LayerCount: 2
Fore
SplineSet
102 401 m 0
 102 255 158 151 231 61 c 1
 178 -1 l 1
 107 89 50 211 50 370 c 0
 50 541 116 684 196 795 c 1
 225 768 l 1
 158 660 102 553 102 401 c 0
EndSplineSet
Colour: ffda6b
EndChar

StartChar: _.sing.koroshe.right
Encoding: 65641 -1 105
GlifName: _.sing.koroshe.right
Width: 306
VWidth: 1197
GlyphClass: 2
Flags: HMW
LayerCount: 2
Fore
SplineSet
50 -202 m 1
 50 798 l 1
 256 798 l 1
 256 694 l 1
 150 694 l 1
 150 -97 l 1
 256 -97 l 1
 256 -202 l 1
 50 -202 l 1
EndSplineSet
Colour: ffda6b
EndChar

StartChar: _.sing.koroshe.left
Encoding: 65642 -1 106
GlifName: _.sing.koroshe.left
Width: 306
VWidth: 1197
GlyphClass: 2
Flags: HMW
LayerCount: 2
Fore
SplineSet
50 -99 m 1
 156 -99 l 1
 156 693 l 1
 50 693 l 1
 50 798 l 1
 256 798 l 1
 256 -202 l 1
 50 -202 l 1
 50 -99 l 1
EndSplineSet
Colour: ffda6b
EndChar

StartChar: _.sing.akolad.right
Encoding: 65643 -1 107
GlifName: _.sing.akolad.right
Width: 402
VWidth: 1197
GlyphClass: 2
Flags: HMW
LayerCount: 2
Fore
SplineSet
50 251 m 1
 50 349 l 1
 118 349 150 382 150 464 c 2
 150 620 l 2
 150 701 149 800 352 800 c 1
 352 700 l 1
 270 700 249 674 249 619 c 2
 249 474 l 2
 249 421 232 321 178 300 c 1
 232 279 249 180 249 127 c 2
 249 -19 l 2
 249 -73 270 -100 352 -100 c 1
 352 -200 l 1
 149 -200 150 -101 150 -20 c 2
 150 136 l 2
 150 218 118 251 50 251 c 1
EndSplineSet
Colour: ffda6b
EndChar

StartChar: _.sing.akolad.left
Encoding: 65644 -1 108
GlifName: _.sing.akolad.left
Width: 402
VWidth: 1197
GlyphClass: 2
Flags: HMW
LayerCount: 2
Fore
SplineSet
50 -100 m 1
 131 -100 151 -73 151 -19 c 2
 151 127 l 2
 151 180 169 279 224 300 c 1
 169 321 151 421 151 474 c 2
 151 619 l 2
 151 674 131 700 50 700 c 1
 50 800 l 1
 252 800 252 701 252 620 c 2
 252 464 l 2
 252 382 284 349 352 349 c 1
 352 251 l 1
 284 251 252 218 252 136 c 2
 252 -20 l 2
 252 -101 252 -200 50 -200 c 1
 50 -100 l 1
EndSplineSet
Colour: ffda6b
EndChar

StartChar: _.mark.maad
Encoding: 65645 -1 109
GlifName: _.mark.maad
Width: 0
VWidth: 1352
GlyphClass: 2
Flags: HMW
LayerCount: 2
Fore
SplineSet
0 26 m 1
 32 92 l 2
 44 119 64 138 89 138 c 0
 95 138 101 137 107 135 c 0
 146 124 179 119 210 119 c 0
 259 119 302 131 359 148 c 1
 366 74 l 1
 310 55 261 42 210 42 c 0
 172 42 131 49 86 65 c 1
 75 45 65 22 54 -0 c 1
 0 26 l 1
EndSplineSet
Colour: ffda6b
EndChar

StartChar: _.mark.fatheh
Encoding: 65646 -1 110
GlifName: _.mark.fatheh
Width: 0
VWidth: 2310
GlyphClass: 2
Flags: HMW
LayerCount: 2
Fore
SplineSet
0 -0 m 1
 0 56 l 1
 240 196 l 1
 240 138 l 1
 0 -0 l 1
EndSplineSet
Colour: ffda6b
EndChar

StartChar: _.mark.kasreh
Encoding: 65647 -1 111
GlifName: _.mark.kasreh
Width: 0
VWidth: 2384
GlyphClass: 2
Flags: HMW
LayerCount: 2
Fore
SplineSet
0 -138 m 1
 240 2 l 1
 240 -57 l 1
 0 -193 l 1
 0 -138 l 1
EndSplineSet
Colour: ffda6b
EndChar

StartChar: _.mark.zameh
Encoding: 65648 -1 112
GlifName: _.mark.zameh
Width: 0
VWidth: 2277
GlyphClass: 2
Flags: HMW
LayerCount: 2
Fore
SplineSet
0 -0 m 1
 0 72 l 1
 43 92 76 114 110 146 c 1
 83 158 48 175 48 214 c 0
 48 260 82 295 114 312 c 0
 128 319 141 322 153 322 c 0
 190 322 206 291 206 253 c 0
 206 223 200 205 190 183 c 1
 229 168 l 1
 229 102 l 1
 158 128 l 1
 110 75 64 41 0 -0 c 1
94 237 m 0
 94 220 115 211 129 205 c 1
 149 198 l 1
 154 210 158 223 158 241 c 0
 158 258 150 268 134 268 c 0
 116 268 94 253 94 237 c 0
EndSplineSet
Colour: ffda6b
EndChar

StartChar: _.mark.tanvin_fatheh
Encoding: 65649 -1 113
GlifName: _.mark.tanvin_fatheh
Width: 0
VWidth: 2280
GlyphClass: 2
Flags: HMW
LayerCount: 2
Fore
SplineSet
0 -4 m 1
 0 53 l 1
 239 193 l 1
 239 134 l 1
 0 -4 l 1
0 107 m 1
 0 164 l 1
 239 303 l 1
 239 244 l 1
 0 107 l 1
EndSplineSet
Colour: ffda6b
EndChar

StartChar: _.mark.tanvin_kasreh
Encoding: 65650 -1 114
GlifName: _.mark.tanvin_kasreh
Width: 0
VWidth: 2413
GlyphClass: 2
Flags: HMW
LayerCount: 2
Fore
SplineSet
0 -137 m 1
 239 2 l 1
 239 -57 l 1
 0 -193 l 1
 0 -137 l 1
0 -248 m 1
 239 -107 l 1
 239 -166 l 1
 0 -304 l 1
 0 -248 l 1
EndSplineSet
Colour: ffda6b
EndChar

StartChar: _.mark.tanvin_zameh
Encoding: 65651 -1 115
GlifName: _.mark.tanvin_zameh
Width: 0
VWidth: 2273
GlyphClass: 2
Flags: HMW
LayerCount: 2
Fore
SplineSet
226 287 m 0
 271 287 304 243 304 196 c 0
 304 155 280 109 218 80 c 2
 48 1 l 1
 25 50 l 1
 66 70 l 1
 70 79 73 90 73 100 c 0
 73 114 68 125 56 125 c 0
 52 125 48 125 43 122 c 2
 25 111 l 1
 0 151 l 1
 21 164 l 2
 32 170 42 172 51 172 c 0
 88 172 109 130 109 100 c 0
 109 96 109 93 108 90 c 1
 167 117 l 1
 148 139 136 165 136 193 c 0
 136 242 170 287 226 287 c 0
189 193 m 0
 189 179 196 164 203 155 c 2
 215 140 l 1
 239 153 253 173 253 191 c 0
 253 206 244 220 222 228 c 1
 198 223 189 208 189 193 c 0
EndSplineSet
Colour: ffda6b
EndChar

StartChar: _.mark.tashdid
Encoding: 65652 -1 116
GlifName: _.mark.tashdid
Width: 0
VWidth: 1833
GlyphClass: 2
Flags: HMW
LayerCount: 2
Fore
SplineSet
0 88 m 0
 0 92 0 96 0 100 c 2
 7 168 l 1
 51 164 l 1
 47 114 l 2
 47 111 47 109 47 106 c 0
 47 73 67 57 88 57 c 0
 110 57 133 77 133 116 c 2
 133 166 l 1
 177 166 l 1
 177 117 l 1
 179 73 199 55 218 55 c 0
 237 55 255 73 255 103 c 2
 255 164 l 1
 301 168 l 1
 301 101 l 2
 302 32 256 0 216 0 c 0
 189 0 164 14 157 40 c 1
 147 15 115 0 83 -0 c 0
 42 0 0 25 0 88 c 0
EndSplineSet
Colour: ffda6b
EndChar

StartChar: _.mark.hamze
Encoding: 65653 -1 117
GlifName: _.mark.hamze
Width: 0
VWidth: 1841
GlyphClass: 2
Flags: HMW
LayerCount: 2
Fore
SplineSet
0 -0 m 1
 0 44 l 1
 11 51 29 68 41 75 c 1
 25 89 1 109 1 136 c 0
 1 178 44 208 87 208 c 0
 96 208 103 205 112 203 c 1
 112 161 l 1
 106 162 101 163 97 164 c 1
 87 164 l 2
 65 164 50 159 36 150 c 1
 50 130 73 115 96 108 c 1
 154 135 l 1
 142 80 l 1
 88 62 41 31 0 -0 c 1
EndSplineSet
Colour: ffda6b
EndChar

StartChar: _.mark.sakon
Encoding: 65654 -1 118
GlifName: _.mark.sakon
Width: 0
VWidth: 2099
GlyphClass: 2
Flags: HMW
LayerCount: 2
Fore
SplineSet
81 -0 m 0
 35 0 0 39 0 85 c 0
 0 132 34 168 81 168 c 0
 122 168 144 146 158 118 c 0
 162 108 164 97 164 85 c 0
 164 47 142 18 113 7 c 0
 103 2 93 0 81 -0 c 0
80 120 m 0
 60 120 43 104 43 84 c 0
 43 64 60 47 80 47 c 0
 100 47 118 63 118 84 c 0
 118 104 100 120 80 120 c 0
EndSplineSet
Colour: ffda6b
EndChar

StartChar: _.sing.momaiez
Encoding: 65656 -1 120
GlifName: _.sing.momaiez
Width: 403
VWidth: 1352
GlyphClass: 2
Flags: HMW
LayerCount: 2
Fore
SplineSet
50 -169 m 1
 267 429 l 1
 353 400 l 1
 142 -198 l 1
 50 -169 l 1
EndSplineSet
Colour: ffda6b
EndChar

StartChar: _.sing.hezare
Encoding: 65657 -1 121
GlifName: _.sing.hezare
Width: 222
VWidth: 1197
GlyphClass: 2
Flags: HMW
LayerCount: 2
Fore
SplineSet
50 900 m 1
 172 900 l 1
 130 700 l 1
 91 700 l 1
 50 900 l 1
EndSplineSet
Colour: ffda6b
EndChar

StartChar: _.sing.darsad
Encoding: 65658 -1 122
GlifName: _.sing.darsad
Width: 624
VWidth: 1197
GlyphClass: 2
Flags: HMW
LayerCount: 2
Fore
SplineSet
50 612 m 1
 142 704 l 1
 235 612 l 1
 142 521 l 1
 50 612 l 1
56 88 m 1
 477 736 l 1
 574 709 l 1
 153 63 l 1
 56 88 l 1
349 173 m 1
 441 266 l 1
 534 173 l 1
 441 81 l 1
 349 173 l 1
EndSplineSet
Colour: ffda6b
EndChar

StartChar: _.sing.mosavi
Encoding: 65659 -1 123
GlifName: _.sing.mosavi
Width: 500
VWidth: 1197
GlyphClass: 2
Flags: HMW
LayerCount: 2
Fore
SplineSet
50 200 m 1
 50 300 l 1
 450 300 l 1
 450 200 l 1
 50 200 l 1
50 400 m 1
 50 501 l 1
 449 501 l 1
 449 400 l 1
 50 400 l 1
EndSplineSet
Colour: ffda6b
EndChar

StartChar: _.beh_k.init
Encoding: 65661 -1 125
GlifName: _.beh_k.init
Width: 351
VWidth: 1197
GlyphClass: 2
UnlinkRmOvrlpSave: 1
Flags: HMW
LayerCount: 2
Fore
SplineSet
-50 49 m 0
 -50 76 -27 100 -1 100 c 0
 17 100 34 100 52 100 c 0
 130 100 198 107 229 156 c 1
 220 241 189 305 143 362 c 1
 204 431 l 1
 251 374 287 299 287 202 c 0
 287 38 179 0 40 -0 c 0
 26 0 13 0 -1 -0 c 0
 -25 0 -50 24 -50 49 c 0
EndSplineSet
Colour: ffda6b
EndChar

StartChar: _.beh_k.medi
Encoding: 65662 -1 126
GlifName: _.beh_k.medi
Width: 481
VWidth: 1304
GlyphClass: 2
UnlinkRmOvrlpSave: 1
Flags: HMW
LayerCount: 2
Fore
SplineSet
-50 50 m 0
 -50 76 -26 100 0 100 c 2
 44 100 l 2
 142 100 216 116 254 176 c 1
 244 219 240 284 231 327 c 1
 298 385 l 1
 309 303 304 202 346 149 c 0
 369 118 407 101 462 101 c 2
 481 101 l 1
 481 -0 l 1
 456 -0 l 2
 358 0 307 34 276 102 c 1
 233 32 153 0 41 -0 c 2
 0 -0 l 2
 -26 0 -50 24 -50 50 c 0
EndSplineSet
Colour: ffda6b
EndChar

StartChar: _.sing.3noqte
Encoding: 65663 -1 127
GlifName: _.sing.3noqte
Width: 835
VWidth: 1304
GlyphClass: 2
Flags: HMW
LayerCount: 2
Fore
SplineSet
50 75 m 1
 116 187 l 1
 147 162 184 132 220 116 c 1
 155 11 l 1
 123 37 89 60 50 75 c 1
332 75 m 1
 398 187 l 1
 429 162 466 132 502 116 c 1
 437 11 l 1
 405 37 371 60 332 75 c 1
615 75 m 1
 680 187 l 1
 711 162 749 132 785 116 c 1
 718 11 l 1
 687 37 654 60 615 75 c 1
EndSplineSet
Colour: ffda6b
EndChar

StartChar: s.khat_tire
Encoding: 8208 8208 138
GlifName: s.khat_tire
Width: 504
VWidth: 0
GlyphClass: 2
Flags: HMW
LayerCount: 2
Fore
SplineSet
55 229 m 1
 55 307 l 1
 451 307 l 1
 451 229 l 1
 55 229 l 1
EndSplineSet
Colour: d7d7d7
EndChar

StartChar: s.zwj
Encoding: 8205 8205 174
GlifName: s.zwj
Width: 0
VWidth: 1331
GlyphClass: 2
Flags: HMW
LayerCount: 2
Fore
SplineSet
25 -327 m 1
 -25 -327 l 1
 -25 579 l 1
 -111 491 l 1
 -141 521 l 1
 -30 631 l 1
 -141 740 l 1
 -111 772 l 1
 0 660 l 1
 111 772 l 1
 141 740 l 1
 30 631 l 1
 141 521 l 1
 111 491 l 1
 25 579 l 1
 25 -327 l 1
EndSplineSet
Colour: d7d7d7
EndChar

StartChar: s.tagsim
Encoding: 247 247 182
GlifName: s.tagsim
Width: 564
VWidth: 1278
GlyphClass: 2
Flags: HMW
LayerCount: 2
Fore
SplineSet
59 352 m 1
 59 429 l 1
 506 429 l 1
 506 352 l 1
 59 352 l 1
234 204 m 1
 234 299 l 1
 330 299 l 1
 330 204 l 1
 234 204 l 1
234 482 m 1
 234 577 l 1
 330 577 l 1
 330 482 l 1
 234 482 l 1
EndSplineSet
Colour: d7d7d7
EndChar

StartChar: s.zwnj
Encoding: 8204 8204 215
GlifName: s.zwnj
Width: 0
VWidth: 1331
GlyphClass: 2
Flags: HMW
LayerCount: 2
Fore
SplineSet
-25 -308 m 1
 -25 710 l 1
 25 710 l 1
 25 -308 l 1
 -25 -308 l 1
EndSplineSet
Colour: d7d7d7
EndChar

StartChar: s.dotted_circle
Encoding: 9676 9676 220
GlifName: s.dotted_circle
Width: 576
VWidth: 1890
GlyphClass: 2
Flags: HMW
LayerCount: 2
Fore
SplineSet
60 181 m 0
 60 196 67 203 82 203 c 0
 97 203 104 196 104 182 c 2
 104 180 l 2
 104 166 97 159 82 159 c 0
 67 159 60 166 60 181 c 0
76 103 m 0
 76 118 83 126 98 126 c 0
 113 126 120 118 120 103 c 0
 120 88 113 80 98 80 c 0
 83 80 76 88 76 103 c 0
76 259 m 0
 76 274 83 282 98 282 c 0
 113 282 120 274 120 259 c 0
 120 244 113 236 99 236 c 0
 84 236 76 244 76 259 c 0
120 34 m 0
 120 49 127 56 142 57 c 0
 157 56 164 49 165 34 c 0
 164 19 157 12 142 12 c 0
 127 12 120 19 120 34 c 0
120 326 m 0
 120 341 127 348 142 349 c 0
 157 348 164 341 165 326 c 0
 164 311 157 304 142 304 c 0
 127 304 120 311 120 326 c 0
187 -8 m 0
 187 7 195 14 210 14 c 0
 225 14 233 7 233 -8 c 0
 233 -23 225 -30 210 -30 c 0
 195 -30 187 -23 187 -8 c 0
187 372 m 0
 187 387 195 394 210 394 c 0
 225 394 233 387 233 372 c 0
 233 357 225 350 210 350 c 0
 195 350 187 357 187 372 c 0
310 -26 m 0
 310 -41 303 -48 288 -48 c 0
 273 -48 266 -41 265 -26 c 0
 266 -11 273 -4 288 -3 c 0
 303 -4 310 -11 310 -26 c 0
288 410 m 0
 303 410 310 403 310 388 c 0
 310 373 303 366 288 365 c 0
 273 366 266 373 265 388 c 0
 266 403 273 410 288 410 c 0
344 -8 m 0
 344 7 352 14 367 14 c 0
 382 14 390 7 390 -8 c 0
 390 -22 382 -30 367 -31 c 0
 352 -30 344 -22 344 -8 c 0
344 372 m 0
 344 387 352 394 367 394 c 0
 382 394 390 387 390 372 c 0
 390 358 382 350 367 349 c 0
 352 350 344 358 344 372 c 0
412 34 m 0
 412 49 419 56 434 57 c 0
 449 56 456 49 456 34 c 0
 456 19 449 12 434 12 c 0
 419 12 412 19 412 34 c 0
412 326 m 0
 412 341 419 348 434 349 c 0
 449 348 456 341 456 326 c 0
 456 311 449 304 434 304 c 0
 419 304 412 311 412 326 c 0
456 103 m 0
 456 118 463 126 478 126 c 0
 492 126 500 118 501 103 c 0
 500 88 492 80 478 80 c 0
 463 80 456 88 456 103 c 0
456 259 m 0
 456 274 463 282 478 282 c 0
 492 282 500 274 501 259 c 0
 500 244 492 236 478 236 c 0
 463 236 456 244 456 259 c 0
472 181 m 0
 472 196 479 203 494 203 c 0
 509 203 516 196 517 182 c 2
 517 180 l 2
 516 166 509 159 494 159 c 0
 479 159 472 166 472 181 c 0
EndSplineSet
Colour: d7d7d7
EndChar

StartChar: s.figure_dash
Encoding: 8210 8210 224
GlifName: s.figure_dash
Width: 600
VWidth: 0
GlyphClass: 2
Flags: HMW
LayerCount: 2
Fore
SplineSet
55 229 m 1
 55 307 l 1
 547 307 l 1
 547 229 l 1
 55 229 l 1
EndSplineSet
Colour: d7d7d7
EndChar

StartChar: s.em_dash
Encoding: 8212 8212 263
GlifName: s.em_dash
Width: 1200
VWidth: 1175
GlyphClass: 2
Flags: HMW
LayerCount: 2
Fore
SplineSet
55 229 m 1
 55 307 l 1
 1147 307 l 1
 1147 229 l 1
 55 229 l 1
EndSplineSet
Colour: d7d7d7
EndChar

StartChar: s.bullet
Encoding: 8226 8226 278
GlifName: s.bullet
Width: 602
VWidth: 1331
GlyphClass: 2
Flags: HMW
LayerCount: 2
Fore
SplineSet
532 432 m 0
 532 369 509 315 464 270 c 0
 419 225 365 202 302 202 c 0
 245 202 194 223 147 266 c 0
 100 309 77 357 77 410 c 0
 77 483 99 542 142 585 c 0
 185 628 236 650 295 650 c 0
 368 650 426 630 468 591 c 0
 510 552 532 499 532 432 c 0
EndSplineSet
Colour: d7d7d7
EndChar

StartChar: s.en_dash
Encoding: 8211 8211 310
GlifName: s.en_dash
Width: 600
VWidth: 1175
GlyphClass: 2
Flags: HMW
LayerCount: 2
Fore
SplineSet
55 229 m 1
 55 307 l 1
 547 307 l 1
 547 229 l 1
 55 229 l 1
EndSplineSet
Colour: d7d7d7
EndChar

StartChar: s.horizontal_bar
Encoding: 8213 8213 316
GlifName: s.horizontal_bar
Width: 2400
VWidth: 1175
GlyphClass: 2
Flags: HMW
LayerCount: 2
Fore
SplineSet
55 229 m 1
 55 307 l 1
 2347 307 l 1
 2347 229 l 1
 55 229 l 1
EndSplineSet
Colour: d7d7d7
EndChar

StartChar: s.lrm
Encoding: 8206 8206 317
GlifName: s.lrm
Width: 0
VWidth: 1331
GlyphClass: 2
Flags: HMW
LayerCount: 2
Fore
SplineSet
-25 -308 m 1
 -25 676 l 1
 196 676 l 1
 106 759 l 1
 138 790 l 1
 280 651 l 1
 138 510 l 1
 106 544 l 1
 196 628 l 1
 22 628 l 1
 22 -308 l 1
 -25 -308 l 1
EndSplineSet
Colour: d7d7d7
EndChar

StartChar: s.rlm
Encoding: 8207 8207 346
GlifName: s.rlm
Width: 0
VWidth: 1331
GlyphClass: 2
Flags: HMW
LayerCount: 2
Fore
SplineSet
22 676 m 1
 22 -308 l 1
 -25 -308 l 1
 -25 628 l 1
 -196 628 l 1
 -108 544 l 1
 -138 510 l 1
 -280 651 l 1
 -138 790 l 1
 -108 759 l 1
 -196 676 l 1
 22 676 l 1
EndSplineSet
Colour: d7d7d7
EndChar

StartChar: _.mark.he_yeh
Encoding: 65664 -1 400
GlifName: _.mark.he_yeh
Width: 209
VWidth: 1304
GlyphClass: 1
UnlinkRmOvrlpSave: 1
Flags: HMW
LayerCount: 2
Fore
SplineSet
192 89 m 2
 192 90 l 2
 192 95 184 100 167 104 c 0
 153 107 144 109 141 109 c 0
 122 114 113 124 113 141 c 0
 113 176 135 207 178 234 c 0
 191 241 202 245 210 245 c 1
 210 200 l 1
 186 200 165 187 147 162 c 1
 145 156 l 2
 145 152 157 146 180 138 c 0
 205 130 218 124 221 120 c 0
 224 115 226 106 226 92 c 0
 226 77 219 62 206 49 c 0
 169 12 101 -6 0 -6 c 1
 17 42 l 1
 96 42 150 53 178 75 c 0
 187 82 192 87 192 89 c 2
EndSplineSet
EndChar

StartChar: uni0000
Encoding: 0 0 401
GlifName: uni0000
Width: 497
VWidth: 0
GlyphClass: 2
Flags: HMW
LayerCount: 2
Fore
SplineSet
59 -251 m 1
 59 709 l 1
 438 709 l 1
 438 -251 l 1
 59 -251 l 1
105 -181 m 1
 387 -181 l 1
 387 648 l 1
 105 648 l 1
 105 -181 l 1
EndSplineSet
EndChar

StartChar: _.ghaf.medi
Encoding: 65665 -1 402
GlifName: _.ghaf.medi
Width: 638
VWidth: 0
GlyphClass: 2
Flags: HMW
LayerCount: 2
Fore
SplineSet
-50 49 m 0
 -50 76 -27 100 -1 100 c 2
 143 100 l 2
 239 100 303 126 324 202 c 1
 260 303 173 384 65 444 c 1
 72 477 91 512 106 540 c 0
 138 603 197 626 262 656 c 0
 357 697 449 725 554 756 c 1
 538 668 l 1
 396 620 246 576 133 498 c 1
 219 443 284 385 343 303 c 0
 401 222 442 100 582 100 c 2
 638 100 l 1
 638 -0 l 1
 605 -0 l 2
 468 0 408 60 356 146 c 1
 333 46 264 0 137 -0 c 2
 -1 -0 l 2
 -25 0 -50 24 -50 49 c 0
181 635 m 1
 187 684 197 713 231 731 c 0
 306 769 394 803 478 830 c 1
 467 762 l 1
 394 735 l 1
 318 708 244 678 181 635 c 1
EndSplineSet
Colour: ffda6b
EndChar

StartChar: _.ghaf.init
Encoding: 65666 -1 403
GlifName: _.ghaf.init
Width: 515
VWidth: 0
GlyphClass: 2
Flags: HMW
LayerCount: 2
Fore
SplineSet
-50 49 m 0
 -50 76 -27 100 -1 100 c 2
 130 100 l 2
 217 100 282 123 305 188 c 1
 261 309 155 384 50 444 c 1
 59 477 77 512 93 540 c 0
 125 603 183 626 248 656 c 0
 313 683 380 707 451 729 c 1
 433 638 l 1
 321 599 207 560 119 498 c 1
 204 446 287 378 334 289 c 0
 349 258 356 227 356 194 c 0
 356 62 264 0 130 -0 c 2
 -1 -0 l 2
 -25 0 -50 24 -50 49 c 0
131 636 m 1
 137 684 146 712 180 732 c 0
 255 769 343 804 428 830 c 1
 417 763 l 1
 343 736 l 2
 268 708 194 678 131 636 c 1
EndSplineSet
Colour: ffda6b
EndChar

StartChar: _.la.isol.fa
Encoding: 65667 -1 404
Width: 611
VWidth: 0
Flags: HMW
LayerCount: 2
Fore
SplineSet
64 605 m 1
 105 706 l 1
 162 642 209 582 262 518 c 1
 332 429 l 2
 357 399 381 368 407 335 c 1
 427 382 428 443 428 511 c 0
 428 526 429 541 429 554 c 0
 429 608 424 650 385 699 c 1
 453 800 l 1
 547 694 l 1
 505 617 l 1
 505 480 492 365 444 278 c 1
 466 232 490 187 490 128 c 0
 490 63 460 0 396 -0 c 2
 194 -0 l 1
 172 100 l 1
 176 100 l 2
 223 100 260 136 288 162 c 0
 318 189 350 228 371 260 c 1
 271 383 174 493 64 605 c 1
315 100 m 1
 319 100 323 99 328 99 c 0
 365 99 432 102 432 136 c 0
 432 163 415 190 404 208 c 1
 379 165 351 133 315 100 c 1
EndSplineSet
Colour: ffda6b
EndChar

StartChar: _.la.fina.fa
Encoding: 65668 -1 405
Width: 687
VWidth: 0
Flags: HMW
LayerCount: 2
Fore
SplineSet
64 554 m 1
 107 665 l 1
 225 559 332 417 394 258 c 1
 432 353 452 459 452 585 c 0
 452 624 451 659 447 697 c 1
 519 754 l 1
 530 573 531 385 554 215 c 0
 560 151 585 100 656 100 c 2
 687 100 l 1
 687 -0 l 1
 634 -0 l 2
 485 0 484 232 480 340 c 1
 448 206 406 87 300 29 c 0
 264 9 224 0 171 -0 c 2
 143 -0 l 1
 121 100 l 1
 158 100 l 2
 261 100 319 125 357 193 c 1
 311 290 264 366 199 444 c 1
 171 417 l 1
 138 467 103 511 64 554 c 1
EndSplineSet
Colour: ffda6b
EndChar

StartChar: _.sing.alef_maad
Encoding: 65671 -1 408
Width: 345
VWidth: 1352
Flags: HMW
LayerCount: 2
Fore
SplineSet
50 11 m 1
 60 38 67 60 81 81 c 0
 87 90 92 95 98 95 c 0
 108 95 119 86 130 82 c 0
 148 75 174 70 200 70 c 0
 237 70 267 80 295 91 c 1
 295 50 l 1
 268 32 231 18 188 18 c 0
 155 18 123 25 100 36 c 1
 80 -0 l 1
 50 11 l 1
EndSplineSet
Colour: ffda6b
EndChar

StartChar: _.sing.star
Encoding: 65672 -1 409
Width: 503
VWidth: 1197
Flags: HMW
LayerCount: 2
Fore
SplineSet
50 543 m 1
 72 609 l 1
 123 593 l 2
 136 589 154 582 177 572 c 0
 200 562 215 557 221 555 c 1
 220 561 220 570 219 582 c 0
 218 594 218 603 217 609 c 0
 217 615 216 624 216 635 c 0
 216 646 216 655 216 660 c 2
 216 714 l 1
 286 714 l 1
 286 660 l 2
 286 623 284 588 280 555 c 1
 290 558 306 565 329 574 c 0
 352 583 368 590 379 593 c 2
 430 609 l 1
 453 543 l 1
 401 525 l 2
 390 522 373 518 350 512 c 0
 327 506 310 501 299 498 c 1
 305 491 327 464 365 417 c 1
 397 373 l 1
 341 332 l 1
 309 375 l 2
 289 402 270 432 252 463 c 1
 216 408 197 379 194 375 c 2
 162 332 l 1
 105 373 l 1
 136 417 l 2
 145 426 167 453 203 498 c 1
 192 501 175 506 152 512 c 0
 129 518 113 522 102 525 c 2
 50 543 l 1
EndSplineSet
Colour: ffda6b
EndChar

StartChar: _.sing.zarb
Encoding: 65673 -1 410
Width: 455
VWidth: 1279
Flags: HMW
LayerCount: 2
Fore
SplineSet
50 165 m 1
 156 271 l 1
 50 377 l 1
 121 448 l 1
 227 342 l 1
 333 448 l 1
 405 377 l 1
 299 271 l 1
 405 165 l 1
 333 93 l 1
 227 199 l 1
 121 93 l 1
 50 165 l 1
EndSplineSet
Colour: ffda6b
EndChar

StartChar: _.sing.khateh_amoodi
Encoding: 65674 -1 411
Width: 200
VWidth: 1331
Flags: HMW
LayerCount: 2
Fore
SplineSet
50 -100 m 1
 50 300 l 1
 150 300 l 1
 150 -100 l 1
 50 -100 l 1
50 401 m 1
 50 801 l 1
 150 801 l 1
 150 401 l 1
 50 401 l 1
EndSplineSet
Colour: ffda6b
EndChar
